<?xml version="1.0" encoding="UTF-8" ?>
<!DOCTYPE svg PUBLIC "-//W3C//DTD SVG 1.1//EN" "http://www.w3.org/Graphics/SVG/1.1/DTD/svg11.dtd">
<svg width="1080pt" height="1080pt" viewBox="0 0 1080 1080" version="1.1" xmlns="http://www.w3.org/2000/svg">
<g id="#fe0420ff">
<path fill="#fe0420" opacity="1.00" d=" M 264.27 226.64 C 268.42 227.07 272.57 227.40 276.73 227.62 L 276.70 228.02 C 275.11 227.76 273.52 227.59 271.92 227.50 C 272.96 228.27 274.04 229.01 275.16 229.69 C 271.79 228.92 268.39 228.32 265.00 227.73 C 264.82 227.46 264.45 226.92 264.27 226.64 Z" />
<path fill="#fe0420" opacity="1.00" d=" M 189.68 558.83 C 195.57 558.49 200.97 555.84 206.73 554.77 C 205.54 557.66 204.04 560.40 202.44 563.09 C 203.30 560.82 203.80 558.44 203.89 556.03 C 198.61 556.55 194.17 561.37 188.62 558.98 L 189.68 558.83 Z" />
</g>
<g id="#f4f3f7ff">
<path fill="#f4f3f7" opacity="1.00" d=" M 252.42 92.18 C 261.31 87.33 271.82 87.80 281.56 88.80 C 298.44 92.67 312.08 104.16 325.07 114.98 C 333.25 121.74 340.37 129.64 347.92 137.08 C 352.53 141.51 356.53 146.75 362.16 149.98 C 365.86 152.15 369.01 155.26 371.22 158.95 C 372.99 161.97 373.03 165.63 374.52 168.76 C 376.25 171.54 378.88 173.59 380.95 176.11 C 397.94 196.96 409.26 221.60 424.08 243.91 C 428.80 251.27 436.52 255.75 443.70 260.34 C 451.81 265.29 459.73 270.65 468.14 275.05 C 473.36 273.77 478.52 271.71 484.04 272.36 C 489.75 271.99 494.58 275.47 499.93 276.67 C 507.15 275.12 511.08 267.54 518.08 265.55 C 522.45 265.00 527.54 264.68 531.10 267.79 C 535.30 270.97 537.35 276.20 541.64 279.26 C 546.96 281.16 552.21 278.12 556.62 275.38 C 560.48 272.69 565.42 272.93 569.86 273.54 C 574.27 275.09 577.32 278.86 580.72 281.87 C 585.39 281.04 590.12 280.76 594.84 280.30 C 597.69 277.99 599.75 274.91 602.05 272.08 C 615.73 255.38 627.88 237.44 642.30 221.33 C 652.21 209.28 663.02 198.03 673.53 186.52 C 678.83 180.82 684.59 175.59 690.30 170.31 C 693.81 167.11 696.42 162.97 700.49 160.39 C 702.86 158.83 705.16 157.15 707.31 155.27 C 713.25 150.01 720.05 145.84 726.77 141.66 C 740.33 133.72 754.90 127.15 770.33 123.86 C 777.13 122.28 784.14 122.71 791.06 122.72 C 803.50 123.16 815.06 129.60 823.61 138.39 C 835.72 150.35 842.34 166.59 846.75 182.75 C 850.32 195.26 850.71 208.34 852.69 221.12 C 853.90 228.03 853.61 235.06 853.78 242.04 C 854.07 247.93 851.08 253.26 850.48 259.04 C 849.77 265.75 847.36 272.22 847.46 279.01 C 847.53 283.35 846.74 287.67 845.19 291.72 C 843.63 295.98 840.69 299.60 839.43 303.98 C 837.75 309.50 835.47 314.79 833.26 320.10 C 829.33 329.04 827.36 338.62 825.33 348.12 C 822.79 359.92 823.47 372.03 822.81 384.00 C 822.73 391.65 823.21 399.42 821.38 406.93 C 818.98 416.90 815.04 426.42 811.15 435.88 C 809.20 440.22 811.43 444.86 813.45 448.72 C 818.11 456.27 820.89 464.83 826.23 471.98 C 829.64 478.29 837.41 479.77 841.78 485.14 C 844.13 488.08 846.76 490.95 848.14 494.52 C 849.59 498.99 847.76 503.56 847.55 508.04 C 848.65 512.16 851.33 515.64 852.47 519.75 C 854.31 525.85 853.67 532.65 856.94 538.31 C 860.66 544.91 863.99 551.74 866.55 558.88 C 867.57 561.63 867.83 564.67 866.97 567.50 C 866.46 570.20 864.57 573.20 866.48 575.77 C 869.13 581.75 876.27 584.20 878.35 590.55 C 879.75 595.29 879.10 600.35 880.32 605.15 C 881.37 609.71 879.04 613.93 877.09 617.88 C 881.93 622.41 885.45 628.19 888.17 634.18 C 889.24 639.26 889.39 645.52 885.42 649.45 C 881.76 653.12 876.23 653.89 872.46 657.44 C 869.31 660.45 864.84 661.17 861.27 663.46 C 860.88 666.49 862.74 669.13 863.50 671.95 C 864.48 674.80 864.11 677.88 864.72 680.80 C 866.28 684.42 868.69 687.89 868.53 692.01 C 868.93 698.22 864.70 703.64 859.69 706.81 C 854.40 709.88 848.34 711.24 842.35 712.13 C 836.83 712.80 834.24 718.47 831.65 722.68 C 840.72 728.01 843.31 739.29 843.78 749.05 C 844.27 755.15 838.92 760.35 840.58 766.52 C 843.46 775.88 844.16 785.92 842.40 795.58 C 849.68 800.57 857.09 805.42 863.60 811.42 C 884.38 828.89 903.22 848.47 922.59 867.45 C 928.17 872.50 933.64 877.66 938.87 883.08 C 952.69 897.95 967.56 911.83 980.67 927.35 C 991.81 938.96 1001.71 951.65 1011.35 964.51 C 1018.10 973.83 1024.10 983.71 1031.32 992.70 C 1035.91 998.49 1040.38 1004.38 1044.69 1010.38 C 1057.30 1026.27 1067.80 1043.67 1080.00 1059.86 L 1080.00 1080.00 L 1075.55 1080.00 C 1072.35 1075.04 1069.60 1069.75 1065.60 1065.37 C 1060.91 1060.20 1058.13 1053.74 1054.16 1048.07 C 1043.11 1028.93 1028.78 1012.00 1015.60 994.35 C 1004.04 977.46 992.10 960.74 978.12 945.75 C 973.54 941.25 970.14 935.78 965.86 931.04 C 967.51 933.43 969.30 935.73 971.10 938.03 C 967.26 936.80 962.95 936.06 960.04 933.05 C 947.56 920.51 935.14 907.88 922.20 895.80 C 909.29 882.38 895.61 869.73 882.64 856.36 C 871.43 844.57 859.28 833.74 847.47 822.58 C 841.77 817.57 835.79 812.89 829.52 808.63 C 830.26 804.25 829.09 799.99 827.45 795.97 C 821.65 801.91 813.41 804.07 806.01 807.27 C 788.47 812.91 771.26 819.60 754.67 827.63 C 733.05 836.41 711.93 846.41 691.07 856.88 C 681.23 862.02 671.30 867.02 661.85 872.86 C 649.09 879.99 636.26 887.01 624.09 895.12 C 608.04 906.22 592.38 917.91 577.25 930.24 C 550.03 953.94 524.18 979.17 499.03 1005.05 C 484.89 1020.24 470.35 1035.04 456.36 1050.36 C 447.02 1060.12 438.13 1070.31 428.72 1080.00 L 423.14 1080.00 C 430.02 1073.58 436.24 1066.50 442.52 1059.50 C 459.88 1041.20 476.58 1022.27 494.47 1004.47 C 503.10 995.77 511.21 986.55 520.15 978.15 C 525.87 972.87 531.50 967.50 537.02 962.02 C 545.94 952.92 555.59 944.58 565.00 936.01 C 575.13 926.34 586.51 918.13 597.52 909.52 C 603.28 904.85 609.62 900.97 615.52 896.50 C 625.12 889.46 635.57 883.76 645.73 877.60 C 659.38 869.99 672.73 861.82 686.84 855.05 C 706.06 845.88 725.07 836.25 744.59 827.70 C 746.17 826.98 747.73 826.25 749.31 825.52 C 746.05 825.44 742.76 825.81 739.54 825.23 C 739.42 819.20 739.78 813.13 738.54 807.19 C 736.91 798.88 737.64 790.39 737.46 781.98 C 737.33 778.57 737.80 775.19 738.57 771.87 C 745.79 770.11 752.64 767.06 759.95 765.65 C 773.42 762.47 786.24 757.11 799.46 753.08 C 799.35 752.23 799.25 751.39 799.17 750.56 C 794.40 750.27 789.90 752.00 785.50 753.56 C 773.12 757.74 761.10 762.92 748.45 766.29 C 733.64 770.15 718.78 773.85 703.78 776.88 C 691.03 779.61 678.09 781.30 665.36 784.12 C 650.87 786.68 636.52 790.01 622.06 792.75 C 612.28 794.56 602.61 796.90 593.00 799.48 C 583.87 801.58 574.72 803.62 565.77 806.43 C 549.35 810.62 532.49 814.72 518.04 823.94 C 512.87 828.61 509.85 835.10 505.59 840.55 C 495.80 854.99 485.17 868.84 475.10 883.09 C 467.04 894.65 459.07 906.27 450.77 917.67 C 426.90 949.37 402.42 980.60 377.59 1011.55 C 370.68 1020.33 364.43 1029.63 357.19 1038.15 C 346.04 1052.01 335.82 1066.62 324.09 1080.00 L 156.19 1080.00 C 159.75 1067.28 163.81 1054.70 167.26 1041.95 C 171.26 1029.26 175.09 1016.36 181.69 1004.73 C 189.62 990.04 199.33 976.42 208.83 962.74 C 210.96 959.27 212.85 955.65 215.05 952.22 C 216.10 959.78 216.96 967.63 220.43 974.55 C 222.61 979.12 228.16 981.34 233.00 980.50 C 238.21 979.54 242.93 977.03 247.60 974.67 C 256.66 970.66 264.16 964.01 271.45 957.46 C 275.70 953.36 279.91 949.21 283.60 944.60 C 289.84 937.25 294.80 928.95 300.70 921.35 C 304.30 921.98 308.04 922.16 311.51 923.41 C 314.56 936.49 317.76 949.68 323.20 962.03 C 330.64 978.72 341.01 995.39 357.50 1004.38 C 362.09 1006.99 369.07 1008.51 373.02 1004.06 C 380.42 996.99 386.84 988.94 392.54 980.46 C 394.93 976.75 399.99 976.17 402.27 972.35 C 406.84 965.54 411.64 958.61 413.70 950.56 C 417.84 935.40 420.82 919.77 420.39 903.99 C 420.69 897.21 419.48 890.51 419.03 883.78 C 418.56 889.31 418.81 894.87 418.41 900.42 C 416.65 918.43 412.48 936.30 405.26 952.94 C 402.78 958.87 399.20 964.24 395.41 969.40 C 402.14 956.36 405.64 941.90 408.13 927.51 C 411.29 909.14 410.05 889.88 403.33 872.42 C 400.62 864.78 396.16 857.33 389.20 852.91 C 384.02 849.68 377.73 850.45 371.93 850.41 C 365.33 850.25 359.05 852.59 352.91 854.73 C 345.73 857.39 338.59 860.26 331.88 863.98 C 327.16 866.98 322.99 870.77 319.14 874.82 C 314.54 873.46 309.65 872.42 305.93 869.17 C 309.74 867.41 313.65 865.91 317.63 864.61 C 330.76 860.35 342.04 851.73 355.51 848.34 C 365.40 844.80 376.11 844.57 386.44 845.85 C 389.05 846.40 392.26 846.68 393.65 849.34 C 396.66 853.95 400.65 857.89 403.15 862.85 C 405.54 867.44 407.78 872.12 409.76 876.92 C 409.62 873.45 410.01 869.83 408.62 866.56 C 406.07 859.94 401.62 854.28 396.90 849.07 C 394.47 846.07 390.18 846.13 387.41 843.61 C 382.99 839.69 376.92 837.60 371.03 838.49 C 363.18 839.23 355.99 842.64 348.98 846.00 C 345.93 847.42 343.30 849.77 340.03 850.70 C 336.15 849.33 332.17 847.67 329.28 844.64 C 321.66 837.14 312.67 831.29 304.38 824.61 C 298.46 820.25 293.03 815.08 286.25 812.06 C 286.48 822.54 292.17 831.76 294.58 841.76 C 301.84 841.45 309.10 841.93 316.32 842.73 C 320.15 843.46 323.81 845.04 326.91 847.43 C 317.63 847.98 308.33 845.92 299.07 847.26 C 296.99 847.40 295.05 848.24 293.33 849.38 C 286.61 854.00 281.08 860.31 277.52 867.66 C 270.04 858.96 259.95 853.12 249.82 848.04 C 237.20 841.69 223.88 836.05 209.81 834.12 C 204.55 844.00 201.00 854.71 199.28 865.77 C 197.84 872.04 198.76 878.49 198.37 884.84 C 193.91 899.85 181.16 909.92 171.90 921.91 C 160.52 935.29 150.67 949.91 142.01 965.17 C 134.28 978.00 128.25 991.74 122.81 1005.67 C 116.20 1022.61 109.46 1039.51 102.31 1056.25 C 99.05 1063.97 96.91 1072.09 94.16 1080.00 L 80.29 1080.00 C 81.25 1077.10 82.02 1074.15 82.87 1071.22 C 86.76 1057.26 92.99 1044.13 98.36 1030.71 C 102.47 1019.73 107.23 1009.01 111.23 997.99 C 117.66 981.02 126.01 964.85 135.54 949.43 C 142.74 937.92 150.37 926.66 159.11 916.26 C 165.30 908.17 172.52 900.95 178.85 892.98 C 182.05 888.61 185.23 883.68 185.27 878.08 C 185.38 873.47 185.06 868.84 185.68 864.27 C 188.63 847.95 193.80 831.48 204.49 818.49 C 207.73 814.91 211.15 810.80 216.14 809.83 C 221.51 809.07 227.02 810.50 232.33 809.12 C 237.33 808.02 241.96 805.31 247.17 805.22 C 254.53 804.68 260.65 809.52 266.94 812.58 C 264.58 806.73 262.46 800.77 260.82 794.68 C 259.41 786.07 254.04 778.93 250.51 771.12 C 248.95 766.94 244.30 765.58 241.50 762.47 C 236.90 757.84 236.73 749.92 230.62 746.65 C 225.93 746.06 220.92 747.68 216.48 745.49 C 212.28 743.38 208.17 740.62 205.45 736.71 C 203.41 733.88 203.50 730.29 203.34 726.99 C 203.30 722.44 200.27 718.54 200.36 713.99 C 200.27 709.83 201.80 705.91 202.95 701.99 C 200.44 700.50 197.96 698.67 194.96 698.38 C 191.04 697.84 186.76 697.15 184.08 693.92 C 179.69 689.72 181.00 683.03 178.30 677.99 C 176.02 673.44 175.14 668.41 173.50 663.65 C 170.64 660.12 166.59 657.41 164.99 652.98 C 161.62 644.86 164.29 635.66 168.69 628.50 C 169.96 626.15 172.14 623.90 171.76 621.03 C 167.74 618.27 162.62 616.59 160.07 612.14 C 155.32 605.11 157.57 595.17 163.52 589.58 C 169.32 584.38 174.97 578.94 179.67 572.72 C 180.17 571.88 181.14 570.66 180.19 569.78 C 178.21 567.10 175.67 564.73 174.58 561.51 C 172.38 554.86 174.43 547.18 179.17 542.12 C 182.54 538.21 187.56 536.09 190.70 531.98 C 188.71 526.74 184.86 521.92 185.36 516.00 C 185.18 508.14 192.04 503.12 196.68 497.75 C 204.29 489.57 207.36 478.58 212.67 469.00 C 216.25 461.74 221.56 455.58 227.46 450.11 C 225.02 442.34 224.81 434.09 225.63 426.05 C 225.95 422.98 227.27 419.77 226.01 416.75 C 224.01 411.32 220.79 406.44 218.89 400.96 C 213.37 385.94 208.71 370.15 209.29 353.98 C 209.53 344.52 207.05 335.30 204.23 326.36 C 201.82 316.38 199.37 306.37 198.20 296.16 C 197.73 293.01 195.29 290.74 193.84 288.04 C 191.60 284.09 191.79 279.41 191.53 275.03 C 191.33 270.51 189.05 266.42 188.63 261.95 C 188.27 256.96 192.14 252.94 192.34 248.04 C 192.88 239.69 192.31 231.29 193.15 222.96 C 193.87 206.91 197.54 191.20 201.45 175.68 C 206.23 159.51 211.05 143.12 219.68 128.50 C 227.89 114.41 237.00 99.26 252.42 92.18 M 254.56 112.54 C 248.31 117.75 243.64 124.55 239.28 131.34 C 233.00 141.86 227.63 152.99 223.97 164.70 C 222.23 169.81 220.14 174.82 218.79 180.06 C 215.50 193.91 211.55 207.71 210.37 221.96 C 207.86 247.58 210.82 273.34 215.24 298.57 C 217.02 309.37 219.31 320.11 222.70 330.53 C 223.82 333.82 224.98 337.33 227.85 339.54 C 223.50 358.06 228.01 377.42 234.99 394.73 C 237.44 402.33 242.19 408.84 245.65 415.96 C 244.82 420.03 242.58 423.76 242.42 427.98 C 242.23 431.95 242.14 435.95 242.49 439.93 C 242.99 444.86 247.60 448.51 247.55 453.50 C 242.94 457.92 238.70 462.73 234.00 467.07 C 229.10 472.03 226.82 478.78 223.99 484.99 C 220.49 492.31 218.38 500.56 212.52 506.48 C 208.25 510.53 204.51 515.41 199.09 517.99 C 200.01 521.64 202.89 524.14 205.63 526.49 C 208.30 525.91 211.01 525.49 213.74 525.33 C 214.27 530.84 210.59 535.35 207.43 539.44 C 201.64 545.57 195.56 552.00 187.47 555.00 C 187.53 556.17 187.59 557.34 187.67 558.53 C 188.17 558.60 189.18 558.75 189.68 558.83 L 188.62 558.98 C 194.17 561.37 198.61 556.55 203.89 556.03 C 203.80 558.44 203.30 560.82 202.44 563.09 C 204.04 560.40 205.54 557.66 206.73 554.77 C 208.39 554.36 210.00 553.77 211.64 553.28 C 211.58 558.37 207.90 562.25 205.43 566.39 C 196.83 580.43 186.40 594.44 171.24 601.84 C 170.73 606.10 175.31 607.37 178.54 608.41 C 183.46 609.58 188.64 608.27 192.29 604.74 C 187.35 604.54 182.40 604.76 177.46 604.43 C 186.24 602.46 194.29 596.53 203.58 597.76 C 202.76 600.97 201.72 604.14 200.31 607.15 C 198.39 611.27 197.14 615.75 194.39 619.43 C 191.48 623.31 189.71 627.88 186.83 631.77 C 184.08 635.43 182.03 640.02 177.45 641.72 C 177.02 645.25 177.63 648.73 180.68 650.93 C 181.94 650.35 183.21 649.78 184.47 649.22 C 185.31 647.51 185.74 645.44 187.34 644.25 C 191.38 641.01 196.76 640.70 201.51 639.13 C 205.49 637.64 209.14 635.41 212.82 633.32 C 210.44 639.34 207.52 645.24 203.16 650.10 C 198.71 655.56 192.32 659.32 188.71 665.48 C 188.57 668.13 189.89 670.64 190.93 673.02 C 194.83 673.12 198.71 674.30 200.80 677.88 C 199.56 679.32 198.31 680.76 197.06 682.20 C 202.87 683.46 208.87 682.00 214.67 683.40 C 217.19 684.12 220.05 682.43 222.36 683.79 C 223.33 684.88 224.27 685.98 225.20 687.12 C 224.31 687.76 223.41 688.42 222.50 689.05 C 222.90 689.16 223.69 689.40 224.09 689.51 C 224.39 688.90 225.00 687.66 225.30 687.04 C 226.23 687.49 228.10 688.39 229.03 688.83 C 228.77 690.20 228.49 691.57 228.19 692.95 C 225.18 698.09 222.70 703.79 218.16 707.81 C 223.77 704.90 230.32 705.44 236.43 705.42 C 236.40 706.71 236.77 708.07 236.28 709.32 C 231.41 717.23 224.64 723.64 217.92 729.95 L 217.04 729.77 C 219.72 730.95 222.25 732.45 224.66 734.14 C 224.01 733.15 223.37 732.18 222.75 731.21 C 226.67 729.53 230.86 729.88 235.01 729.43 C 237.60 729.34 240.20 729.02 242.79 729.36 C 245.71 730.00 248.08 732.34 251.10 732.61 C 255.36 731.92 259.36 728.10 263.75 730.57 C 263.68 730.97 263.54 731.78 263.47 732.18 C 258.06 735.27 252.95 740.23 252.08 746.67 C 258.95 746.16 266.27 746.27 272.43 749.75 C 276.74 752.61 279.05 757.41 281.68 761.69 C 286.48 756.71 292.82 753.67 297.68 748.76 C 305.23 741.62 313.10 734.83 320.56 727.60 C 331.70 718.39 342.01 708.06 354.37 700.44 C 366.28 692.49 379.03 685.92 391.11 678.29 C 386.16 671.36 379.48 665.89 374.40 659.05 C 364.02 662.74 354.37 668.25 344.06 672.13 C 323.44 679.96 303.00 689.29 280.87 691.83 C 276.61 692.27 272.38 693.76 268.07 693.10 C 275.49 690.48 283.43 689.89 290.97 687.70 C 296.84 685.99 302.74 684.37 308.52 682.40 C 329.49 674.67 350.30 666.43 370.49 656.84 C 367.58 651.24 365.41 645.32 363.55 639.31 C 361.02 639.32 358.48 639.37 355.95 639.50 C 342.23 640.86 328.39 641.33 314.84 644.12 C 297.45 647.04 280.28 651.02 263.05 654.76 C 257.01 656.20 250.64 656.09 244.78 658.28 C 242.27 658.29 239.75 658.25 237.31 657.62 C 242.97 656.07 248.76 655.13 254.46 653.79 C 264.97 651.73 275.24 648.59 285.77 646.58 C 300.82 643.70 315.77 640.21 331.01 638.51 C 341.35 637.44 351.74 636.83 362.12 636.45 C 362.15 633.04 363.03 629.61 362.43 626.23 C 360.96 620.32 355.08 617.28 350.13 614.66 C 339.01 609.75 326.52 609.94 314.60 609.47 C 293.70 608.75 272.77 609.26 251.93 610.94 C 246.76 611.47 241.46 611.86 236.30 611.16 C 244.89 608.24 254.20 608.59 263.08 606.89 C 272.60 606.21 282.02 604.39 291.58 604.30 C 297.99 603.02 304.55 603.65 311.00 602.68 C 322.66 602.24 334.33 602.39 346.00 602.26 C 353.21 602.18 360.61 602.74 367.61 600.76 C 370.30 600.01 372.74 596.91 375.67 598.30 C 385.49 601.26 395.68 603.41 405.97 603.52 C 409.23 604.88 412.72 605.18 415.99 603.60 C 420.73 603.90 425.10 601.94 429.73 601.30 C 445.78 598.02 461.34 591.43 474.23 581.23 C 488.44 570.51 499.59 555.94 507.01 539.82 C 509.42 535.01 510.80 529.78 513.06 524.91 C 515.91 518.94 518.70 512.93 520.90 506.69 C 522.44 502.57 523.72 498.12 526.90 494.92 C 530.70 490.77 536.66 489.70 542.05 489.74 C 547.64 489.99 553.60 490.43 558.37 493.69 C 561.59 495.86 563.03 499.72 563.92 503.35 C 565.87 512.36 566.82 521.69 570.31 530.30 C 572.76 536.63 577.50 541.75 579.95 548.08 C 582.66 555.08 585.69 562.00 589.68 568.38 C 608.98 600.65 646.24 621.85 684.00 620.36 C 691.78 620.60 699.53 620.04 707.22 618.83 C 715.36 618.16 722.98 614.84 730.14 611.09 C 743.65 604.99 755.23 595.12 764.66 583.78 C 777.97 568.08 785.97 548.30 788.88 528.03 C 789.71 523.74 789.31 519.27 790.80 515.10 C 794.57 510.66 801.33 510.33 805.17 505.94 C 805.69 500.04 805.66 494.04 805.10 488.14 C 804.53 485.74 804.37 482.32 801.54 481.51 C 795.71 479.72 789.75 478.35 783.79 477.13 C 783.56 475.81 783.33 474.48 783.12 473.17 C 789.64 474.15 796.55 473.94 802.72 476.40 C 807.15 480.20 812.76 481.91 817.97 484.32 C 815.02 479.81 812.52 475.03 809.25 470.74 C 807.73 471.77 806.21 472.78 804.68 473.76 C 803.20 467.91 801.52 462.16 798.93 456.69 C 799.47 456.32 800.55 455.58 801.10 455.21 C 798.23 448.44 794.29 440.76 797.43 433.39 C 801.43 424.00 805.37 414.55 807.92 404.65 C 810.31 392.58 809.16 380.22 809.50 367.98 C 809.24 362.61 810.70 357.37 810.60 352.00 C 811.79 345.23 813.51 338.54 814.89 331.80 C 817.26 322.26 821.38 313.32 824.77 304.13 C 825.87 301.43 825.61 298.47 825.33 295.66 C 820.37 301.08 819.12 308.63 816.13 315.14 C 813.78 320.39 812.00 325.87 810.08 331.29 C 806.25 341.74 805.33 352.97 805.16 364.01 C 803.75 372.33 806.13 380.64 805.34 389.00 C 805.56 394.83 803.04 400.21 802.18 405.88 C 800.63 415.10 796.39 423.71 795.63 433.09 C 795.46 435.61 795.24 438.13 794.69 440.61 C 793.95 440.58 792.46 440.53 791.71 440.50 C 789.27 427.63 795.52 415.64 797.92 403.31 C 799.45 398.33 799.60 393.10 800.60 388.02 C 797.76 396.61 792.42 404.02 787.89 411.77 C 785.55 416.01 781.59 418.91 778.61 422.64 C 778.15 427.63 778.99 432.70 778.61 437.72 C 774.55 433.38 771.19 427.67 772.72 421.50 C 775.97 416.57 781.88 414.09 785.01 409.01 C 789.83 401.10 794.51 392.98 797.27 384.08 C 798.48 379.79 796.83 375.30 797.99 371.02 C 798.82 367.70 799.62 364.38 800.13 361.00 C 800.78 352.01 803.28 343.31 805.36 334.58 C 807.96 323.16 812.85 312.46 816.37 301.33 C 822.00 285.48 826.06 269.13 829.43 252.67 C 831.38 240.87 832.22 228.93 833.23 217.03 C 832.46 206.12 832.35 194.96 828.85 184.49 C 825.76 174.33 821.74 164.26 815.40 155.66 C 810.17 149.09 802.94 143.85 794.68 141.95 C 785.39 140.26 775.67 141.10 766.61 143.62 C 741.92 151.63 720.48 167.17 701.30 184.30 C 678.46 205.17 658.01 228.52 638.63 252.58 C 630.11 262.84 622.97 274.18 614.21 284.23 C 610.06 290.13 606.03 296.16 600.82 301.20 C 597.75 301.98 595.13 299.08 592.06 299.28 C 586.78 299.49 580.84 299.46 576.64 303.15 C 576.69 301.95 576.74 300.76 576.79 299.57 C 572.09 296.05 569.20 290.90 566.05 286.09 C 562.12 287.72 558.82 290.58 554.73 291.89 C 550.21 293.78 545.21 293.76 540.41 293.24 C 532.07 291.86 527.35 284.03 522.39 278.01 C 522.51 280.56 521.84 283.38 523.29 285.69 C 525.63 289.83 528.60 293.87 532.76 296.32 C 536.98 298.39 541.90 299.10 546.51 298.17 C 552.97 296.38 558.90 292.82 563.20 287.65 C 565.80 296.21 571.88 303.02 578.16 309.13 C 580.62 309.60 583.31 309.27 585.51 310.72 C 597.19 316.41 604.83 327.25 613.63 336.38 C 620.40 343.04 625.21 351.31 630.19 359.31 C 633.63 342.00 639.79 325.32 647.76 309.60 C 655.65 292.54 666.84 277.24 678.99 262.99 C 693.57 246.55 709.34 230.94 727.61 218.60 C 741.05 208.84 756.47 201.28 772.98 198.65 C 780.91 198.35 790.20 197.20 796.78 202.52 C 794.36 202.60 791.98 202.35 789.64 201.86 C 776.88 199.93 764.20 203.69 752.49 208.46 C 736.49 216.30 721.68 226.53 708.47 238.46 C 683.77 260.33 662.18 286.35 648.45 316.54 C 642.44 328.91 638.01 341.95 633.80 355.02 C 632.52 360.48 633.50 366.14 633.78 371.66 C 639.20 366.62 641.00 359.13 645.13 353.16 C 646.88 349.62 650.58 347.85 652.89 344.79 C 663.08 331.81 674.40 319.62 687.41 309.41 C 705.76 295.77 727.00 285.00 749.96 282.39 C 761.23 282.20 773.61 280.90 783.49 287.51 C 766.98 283.67 749.45 284.40 733.25 289.39 C 724.96 291.74 717.35 295.87 709.46 299.24 C 694.78 308.10 681.00 318.72 669.82 331.82 C 661.19 340.45 654.84 350.94 647.11 360.30 C 653.06 354.65 660.41 350.87 666.75 345.71 C 677.07 339.24 687.51 332.56 699.24 328.90 C 708.75 325.65 718.55 323.33 728.33 321.03 C 737.60 319.45 747.23 318.68 756.43 321.19 C 769.58 323.28 781.47 329.91 792.06 337.72 C 777.65 330.56 762.40 323.96 746.07 323.46 C 733.46 323.24 720.59 325.04 709.08 330.40 C 713.70 330.71 718.33 330.75 722.95 331.23 C 736.09 331.02 748.95 334.77 760.97 339.83 C 769.11 342.63 776.22 347.55 783.05 352.66 C 765.27 345.85 748.05 336.43 728.78 334.59 C 718.50 333.92 708.05 332.82 697.84 334.65 C 687.68 337.46 678.10 342.39 669.78 348.85 C 664.08 352.51 659.52 357.57 654.20 361.72 C 662.53 365.71 670.92 369.62 678.96 374.18 C 684.02 377.27 688.28 381.43 692.92 385.09 C 696.51 387.92 700.95 389.50 704.36 392.59 C 707.61 395.70 712.30 396.45 715.84 399.16 C 720.79 402.80 726.09 405.92 731.52 408.81 C 726.33 408.64 721.14 408.41 715.95 408.66 C 711.49 409.03 707.31 407.13 702.98 406.44 C 680.22 402.37 655.92 404.69 635.13 415.19 C 626.15 418.74 617.34 422.85 609.23 428.11 C 601.97 432.98 596.32 439.71 590.13 445.78 C 586.41 441.62 581.83 438.26 576.48 436.56 C 563.81 432.58 550.40 430.73 537.13 431.73 C 529.07 432.84 520.56 433.28 513.35 437.46 C 511.03 438.66 509.64 441.32 507.05 441.99 C 500.64 435.73 495.87 427.89 489.19 421.85 C 478.97 413.14 468.57 404.34 456.27 398.69 C 451.48 396.35 446.43 394.61 441.65 392.25 C 441.58 386.56 440.55 380.43 443.35 375.19 C 446.08 370.06 447.88 364.52 450.33 359.28 C 458.72 342.37 466.18 324.34 479.98 310.97 C 484.16 306.38 490.24 304.12 494.41 299.51 C 490.80 296.60 489.91 290.73 484.92 289.63 C 478.88 287.82 474.14 292.81 468.93 294.86 C 465.84 291.51 461.78 289.39 457.89 287.14 C 443.23 278.08 427.62 269.92 415.45 257.50 C 405.53 244.27 397.60 229.63 387.44 216.56 C 388.11 216.26 389.45 215.67 390.12 215.37 C 389.33 215.46 387.76 215.65 386.97 215.75 C 382.86 208.48 377.13 202.36 372.32 195.58 C 364.42 185.26 355.58 175.72 347.20 165.80 C 343.34 160.99 338.61 156.98 334.78 152.15 C 325.62 142.32 317.00 131.84 306.26 123.64 C 297.41 116.54 288.18 108.91 276.74 106.69 C 269.01 106.08 260.69 107.50 254.56 112.54 M 497.14 294.71 C 497.85 295.19 499.27 296.17 499.97 296.66 C 505.67 294.59 511.21 291.81 515.70 287.68 C 518.30 285.35 519.42 281.95 521.11 279.00 C 514.37 285.94 505.09 289.42 497.14 294.71 M 806.42 486.85 C 806.47 489.21 806.43 491.59 806.67 493.95 C 809.15 496.16 812.49 496.91 815.32 498.55 C 821.52 502.62 827.35 507.26 832.57 512.54 C 827.69 512.53 822.79 511.96 817.94 512.60 C 817.55 512.92 816.76 513.57 816.37 513.90 C 817.07 516.75 817.82 519.83 819.93 522.02 C 821.89 523.34 824.39 523.49 826.50 524.56 C 828.87 525.59 830.19 527.95 831.71 529.91 C 834.84 534.03 838.39 537.81 841.81 541.70 C 841.77 535.89 840.45 530.23 839.60 524.52 C 839.32 522.91 838.66 521.40 837.83 520.01 C 835.61 514.24 831.43 509.13 830.99 502.78 C 832.64 501.86 834.31 500.95 835.98 500.06 C 834.63 498.19 833.04 496.50 831.17 495.15 C 823.15 491.73 814.71 489.47 806.42 486.85 M 817.98 540.62 C 825.59 542.50 833.98 545.72 837.79 553.12 C 840.50 558.48 843.45 563.76 845.52 569.43 C 848.02 576.04 851.68 582.37 856.99 587.12 C 854.18 580.12 848.40 573.76 849.41 565.73 C 850.96 565.60 852.51 565.47 854.08 565.33 C 853.87 564.12 853.53 562.96 853.06 561.87 C 850.40 560.31 847.35 559.16 845.51 556.56 C 842.82 552.96 840.37 549.03 836.64 546.40 C 831.25 542.57 824.70 539.85 817.98 540.62 M 498.43 576.41 C 495.59 579.30 490.63 582.09 491.84 586.86 C 493.48 590.77 497.93 593.20 502.01 593.51 C 505.54 594.16 507.07 590.37 509.62 588.77 C 513.70 587.96 517.61 590.05 521.05 592.00 C 524.44 595.28 523.92 600.94 521.73 604.78 C 520.66 607.22 517.87 610.16 520.26 612.73 C 525.52 618.73 532.43 624.18 534.00 632.47 C 535.52 641.71 533.24 651.79 526.88 658.85 C 505.40 681.88 474.16 694.42 442.99 695.83 C 437.81 696.95 432.19 695.76 427.37 698.44 C 419.86 702.42 412.68 707.00 405.40 711.39 C 382.61 726.23 363.24 745.57 344.14 764.76 C 351.89 755.68 360.78 747.65 368.96 738.97 C 374.27 733.61 379.54 728.22 385.08 723.10 C 396.78 712.88 410.47 705.39 423.34 696.81 C 417.62 695.53 411.46 694.88 406.61 691.28 C 402.37 688.14 398.65 684.36 394.83 680.74 C 382.66 685.47 371.89 693.04 360.76 699.74 C 335.02 716.46 313.28 738.30 289.48 757.50 C 285.74 759.60 283.35 763.12 280.75 766.28 C 280.25 766.13 279.27 765.82 278.77 765.66 C 278.52 760.80 275.43 756.29 271.39 753.71 C 264.97 750.15 257.30 751.38 250.28 751.42 C 252.12 755.04 256.25 755.78 259.45 757.72 C 262.65 759.96 266.92 759.35 270.04 761.85 C 271.68 763.98 273.65 765.84 275.10 768.12 C 276.93 772.43 276.37 777.20 276.40 781.76 C 277.47 780.59 278.57 779.44 279.70 778.34 C 283.13 782.19 286.70 785.98 290.90 789.01 C 300.17 796.00 308.89 803.67 317.85 811.05 C 324.88 817.41 331.87 823.82 339.10 829.96 C 341.14 831.71 343.43 833.13 345.76 834.47 C 352.89 829.30 359.82 823.82 367.46 819.41 C 384.85 808.62 404.57 802.22 424.47 797.90 C 440.52 794.65 456.66 791.59 473.00 790.23 C 488.57 788.18 504.32 788.36 520.01 788.12 C 528.99 788.05 538.00 788.06 546.96 788.73 C 567.61 791.12 589.23 792.24 609.06 784.80 C 605.75 785.62 602.35 785.33 598.99 785.31 C 590.00 785.51 581.02 784.60 572.11 783.47 C 560.80 781.97 550.68 776.40 540.66 771.32 C 536.40 768.83 532.66 765.57 528.63 762.75 C 528.44 762.22 528.08 761.18 527.89 760.65 C 549.97 760.45 572.56 755.54 591.29 743.42 C 600.24 737.16 608.23 729.63 615.49 721.49 C 618.48 718.07 621.06 713.45 625.97 712.69 C 635.10 710.97 643.81 707.41 651.68 702.51 C 651.58 701.38 651.39 699.12 651.29 697.99 C 642.65 700.93 634.15 704.74 624.94 705.50 C 620.26 705.62 615.65 706.55 610.96 706.56 C 607.69 706.50 604.99 708.61 602.94 710.94 C 596.84 717.57 589.85 723.26 583.22 729.33 C 577.85 733.72 572.30 738.03 565.99 741.01 C 555.04 747.28 542.68 751.46 529.99 751.75 C 524.65 752.88 519.32 751.26 513.95 751.46 C 502.89 750.25 492.68 745.27 483.61 739.01 C 484.81 740.97 486.10 742.89 487.15 744.96 C 478.53 741.08 473.29 733.00 467.17 726.25 C 466.29 727.73 465.42 729.23 464.54 730.72 C 460.02 727.14 458.45 721.41 455.22 716.85 C 452.79 712.76 449.21 709.31 447.69 704.72 C 454.78 704.39 461.92 704.85 468.96 703.77 C 489.24 701.87 508.63 693.88 525.31 682.36 C 529.60 679.68 533.19 675.95 537.74 673.67 C 540.18 672.32 542.52 674.26 544.31 675.78 C 552.23 682.65 560.25 689.79 570.12 693.74 C 580.92 698.25 592.75 701.98 604.59 700.41 C 601.25 697.84 597.06 696.93 593.20 695.46 C 581.49 691.39 571.35 683.98 561.83 676.23 C 555.76 670.27 549.79 664.07 545.26 656.82 C 542.33 652.86 542.41 647.65 542.67 642.96 C 543.61 636.26 544.85 628.88 550.11 624.10 C 553.56 620.61 559.16 618.86 560.45 613.63 C 561.58 609.91 558.12 607.16 557.41 603.74 C 555.29 598.31 559.27 592.62 564.05 590.24 C 566.15 592.01 567.95 594.25 570.54 595.36 C 574.56 596.19 578.85 595.68 582.20 593.17 C 584.48 591.38 589.23 590.90 588.57 587.12 C 587.20 580.18 581.49 574.70 575.17 571.89 C 567.51 568.75 559.14 568.11 550.95 568.33 C 540.02 567.03 528.97 567.07 517.97 567.35 C 510.41 567.02 504.02 571.91 498.43 576.41 M 843.31 584.03 C 847.23 590.39 853.99 593.94 859.94 598.10 C 862.17 600.11 864.30 597.11 866.18 596.07 C 863.27 592.57 859.26 590.07 854.82 589.10 C 850.68 588.18 846.93 586.14 843.31 584.03 M 831.15 593.34 C 835.95 602.76 841.16 612.75 850.20 618.78 C 852.36 620.31 854.65 621.88 857.45 621.75 C 855.56 618.51 851.71 617.43 849.44 614.58 C 848.13 613.05 846.68 611.64 845.57 609.97 C 845.21 608.11 845.82 605.82 848.02 605.63 C 854.43 605.10 860.23 608.90 866.64 608.80 C 866.58 607.45 866.54 606.13 866.50 604.80 C 859.18 603.65 852.75 599.70 845.81 597.34 C 841.00 595.76 836.38 593.02 831.15 593.34 M 839.84 625.40 C 842.51 628.89 846.83 630.44 850.60 632.45 C 856.46 635.48 863.46 634.69 869.24 637.98 C 864.49 639.08 859.63 639.45 854.84 640.26 C 847.00 640.97 839.12 640.40 831.26 640.29 C 831.39 641.25 831.64 643.16 831.77 644.12 C 840.27 649.32 850.31 646.75 859.54 645.74 C 862.09 645.51 864.07 643.62 866.56 643.10 C 869.96 642.25 873.47 641.33 876.28 639.10 C 873.15 636.05 868.86 634.88 865.18 632.71 C 862.81 631.12 859.93 631.78 857.29 631.46 C 851.74 628.80 845.95 626.32 839.84 625.40 M 196.06 644.04 C 196.77 644.30 198.18 644.83 198.88 645.09 C 199.09 645.77 199.50 647.14 199.70 647.82 C 200.76 645.96 201.89 644.14 203.01 642.33 C 200.70 642.91 198.40 643.54 196.06 644.04 M 839.66 661.16 C 839.62 662.86 839.62 664.56 839.58 666.28 C 836.55 666.37 833.45 666.18 830.56 667.24 C 830.54 667.91 830.51 669.26 830.49 669.93 C 835.16 672.00 840.15 673.48 845.29 673.65 C 846.32 674.44 847.33 675.26 848.32 676.12 C 846.60 676.24 844.90 676.41 843.22 676.62 L 843.47 676.88 C 837.90 678.24 832.30 679.83 826.52 679.66 C 826.49 680.19 826.43 681.26 826.40 681.80 C 829.28 683.20 832.20 684.52 835.16 685.76 C 838.33 682.72 842.18 680.57 846.21 678.90 C 847.63 678.11 849.07 677.34 850.52 676.58 C 850.50 676.04 850.47 674.97 850.45 674.43 C 849.44 674.22 848.45 673.97 847.45 673.83 C 845.48 672.58 843.42 671.52 841.51 670.21 C 841.03 669.13 840.88 667.78 841.97 667.01 C 844.98 663.89 847.98 660.62 849.67 656.56 C 850.84 653.69 853.36 651.79 855.78 650.02 C 849.53 652.31 844.21 656.38 839.66 661.16 M 612.59 664.34 C 610.65 667.43 609.03 670.69 607.41 673.96 C 607.87 674.66 608.77 676.07 609.22 676.77 C 611.80 674.66 613.54 671.80 615.47 669.13 C 621.68 671.59 624.79 678.04 630.13 681.68 C 630.77 681.64 632.04 681.58 632.68 681.55 C 632.64 677.26 628.77 674.70 626.06 671.95 C 622.18 668.57 618.31 663.73 612.59 664.34 M 445.95 666.89 C 446.50 667.46 447.62 668.58 448.18 669.15 C 453.31 670.06 459.02 669.37 463.52 672.52 C 465.21 674.09 466.04 671.63 466.98 670.53 C 464.72 668.31 462.13 666.22 458.86 665.89 C 454.58 665.44 449.85 664.59 445.95 666.89 M 203.53 684.47 C 205.33 686.45 206.75 689.92 209.96 689.59 C 212.30 690.27 213.79 688.19 215.28 686.81 C 211.89 684.15 207.59 684.28 203.53 684.47 M 837.02 691.20 C 826.43 691.18 815.92 688.67 805.30 689.58 C 810.25 692.70 815.80 694.65 821.19 696.85 C 826.53 698.94 832.37 698.77 838.01 698.67 C 844.32 698.90 851.06 696.69 855.32 691.87 C 850.18 686.68 843.04 690.62 837.02 691.20 M 220.29 690.76 C 219.80 695.58 218.47 700.24 216.83 704.78 C 219.19 700.71 221.27 696.45 222.67 691.96 C 222.08 691.66 220.89 691.06 220.29 690.76 M 651.76 698.53 C 656.65 698.72 661.10 695.89 663.81 691.94 C 659.03 692.12 654.91 695.17 651.76 698.53 M 806.09 719.13 C 802.61 728.76 801.56 739.28 802.73 749.43 L 803.80 748.31 C 809.10 744.72 815.55 742.85 820.17 738.30 C 817.07 738.34 814.61 740.32 811.89 741.49 C 809.40 742.41 807.31 740.47 805.35 739.29 C 805.28 737.92 805.22 736.57 805.17 735.22 C 812.00 729.76 812.44 719.52 819.99 714.76 C 823.16 711.08 825.69 706.84 829.17 703.39 C 819.52 704.33 809.74 709.78 806.09 719.13 M 216.90 714.02 C 215.59 714.39 215.24 715.72 214.69 716.81 C 218.03 716.23 221.36 714.72 224.67 716.34 C 227.08 714.69 229.04 712.48 230.91 710.26 C 225.99 710.18 221.33 712.10 216.90 714.02 M 237.69 733.30 C 239.30 735.31 240.71 737.52 242.60 739.30 C 244.65 740.69 246.95 741.64 249.15 742.76 C 249.73 740.70 250.38 738.68 250.98 736.64 C 246.61 735.29 242.34 733.28 237.69 733.30 M 275.05 782.75 C 274.57 785.48 272.79 788.36 273.94 791.16 C 275.25 794.38 276.32 797.69 277.34 801.02 C 276.01 795.00 275.59 788.86 275.05 782.75 M 282.41 813.91 C 282.04 818.35 283.36 822.63 283.82 827.00 C 283.38 831.30 279.17 833.40 275.58 834.76 C 278.03 838.20 281.79 841.22 282.61 845.51 C 271.39 835.21 258.55 826.74 244.66 820.51 C 243.15 820.10 241.57 820.44 240.04 820.43 C 250.06 825.70 260.38 830.60 269.22 837.79 C 274.02 840.78 277.52 845.73 282.78 847.89 L 282.73 847.03 C 284.97 845.43 287.48 844.23 289.70 842.59 C 290.02 838.45 288.04 834.65 286.86 830.80 C 284.73 825.34 283.24 819.70 282.41 813.91 Z" />
<path fill="#f4f3f7" opacity="1.00" d=" M 271.92 227.50 C 273.52 227.59 275.11 227.76 276.70 228.02 C 282.87 229.31 289.04 230.83 294.91 233.17 C 311.63 240.43 326.72 250.87 341.25 261.77 C 349.22 267.34 356.19 274.13 363.56 280.44 C 367.70 284.64 372.40 288.30 376.10 292.92 C 378.16 295.39 380.84 297.37 382.30 300.31 C 376.08 296.51 371.25 290.93 365.76 286.22 C 359.02 280.98 353.02 274.87 346.06 269.91 C 324.45 253.43 301.97 236.47 275.16 229.69 C 274.04 229.01 272.96 228.27 271.92 227.50 Z" />
<path fill="#f4f3f7" opacity="1.00" d=" M 268.47 280.64 C 283.59 276.72 299.47 276.62 314.88 278.65 C 330.72 281.19 346.36 285.87 360.44 293.66 C 357.54 293.67 354.51 293.73 351.84 292.38 C 346.58 289.85 340.81 288.74 335.36 286.71 C 326.61 283.56 317.42 281.87 308.24 280.57 C 288.56 279.36 268.16 280.66 249.92 288.76 C 255.87 285.57 261.70 281.81 268.47 280.64 Z" />
<path fill="#f4f3f7" opacity="1.00" d=" M 290.22 309.33 C 309.97 299.66 332.00 293.72 354.09 294.59 C 356.73 294.64 359.23 295.63 361.71 296.47 C 355.48 296.96 349.19 296.28 343.00 297.25 C 333.93 298.55 324.74 299.44 315.96 302.23 C 306.68 305.30 297.13 307.83 288.53 312.60 C 280.75 316.07 273.46 320.52 267.07 326.17 C 273.40 318.83 281.99 314.16 290.22 309.33 Z" />
<path fill="#f4f3f7" opacity="1.00" d=" M 691.70 319.93 C 716.31 307.10 744.13 298.06 772.16 300.98 C 767.73 301.53 763.26 301.26 758.83 301.68 C 745.29 304.65 731.33 306.23 718.36 311.39 C 709.45 314.39 700.59 317.60 692.33 322.13 C 687.73 324.40 682.93 326.36 678.82 329.47 C 682.94 326.07 686.82 322.27 691.70 319.93 Z" />
<path fill="#f4f3f7" opacity="1.00" d=" M 272.38 341.43 C 290.74 329.51 313.32 325.23 334.95 326.75 C 340.00 327.60 345.19 327.21 350.16 328.53 C 365.64 332.11 381.41 336.96 394.09 346.89 C 402.18 352.78 408.28 360.91 414.12 368.93 C 419.14 374.72 422.61 381.79 424.66 389.14 C 420.64 387.19 419.32 382.61 416.88 379.20 C 411.16 368.74 403.53 359.25 394.21 351.78 C 380.34 339.26 361.85 333.46 343.70 330.68 C 331.21 328.48 318.36 329.21 305.91 331.28 C 297.10 332.75 288.64 335.81 280.62 339.69 C 271.19 343.76 262.34 349.07 253.91 354.89 C 259.63 349.87 265.89 345.41 272.38 341.43 Z" />
<path fill="#f4f3f7" opacity="1.00" d=" M 278.69 348.94 C 283.15 346.77 288.08 345.92 292.94 345.18 C 280.11 348.79 269.11 356.71 258.23 364.14 C 256.08 365.75 254.31 367.81 252.13 369.37 C 259.15 360.52 268.53 353.77 278.69 348.94 Z" />
<path fill="#f4f3f7" opacity="1.00" d=" M 710.92 348.08 C 715.69 347.97 720.21 346.16 725.00 346.34 C 746.18 346.14 767.56 353.37 783.97 366.84 C 770.45 361.83 758.11 353.55 743.70 351.10 C 732.97 348.48 721.91 348.16 710.92 348.08 Z" />
<path fill="#f4f3f7" opacity="1.00" d=" M 427.58 375.60 C 430.69 380.43 432.14 386.13 435.39 390.89 C 433.77 390.44 432.03 390.28 430.59 389.36 C 428.80 385.01 427.39 380.35 427.58 375.60 Z" />
<path fill="#f4f3f7" opacity="1.00" d=" M 280.23 441.97 C 291.32 440.35 302.43 437.58 313.70 438.65 C 313.69 439.29 313.69 440.57 313.68 441.21 C 305.94 443.23 297.91 443.78 290.13 445.67 C 285.58 446.74 279.43 447.26 277.68 452.46 C 277.16 456.40 278.04 460.40 277.55 464.36 L 276.50 462.94 C 275.21 456.68 273.22 450.40 273.66 443.94 C 275.35 442.30 278.07 442.61 280.23 441.97 Z" />
<path fill="#f4f3f7" opacity="1.00" d=" M 526.94 452.97 C 534.38 447.51 544.23 448.42 552.95 448.70 C 560.16 449.97 569.01 450.67 573.31 457.52 C 575.06 464.23 572.66 471.07 569.03 476.70 C 559.30 472.35 548.57 470.89 537.99 470.67 C 532.73 470.46 527.74 472.44 522.53 472.70 C 521.77 465.91 521.27 457.93 526.94 452.97 Z" />
<path fill="#f4f3f7" opacity="1.00" d=" M 384.48 469.98 C 392.16 468.61 401.42 470.11 406.19 476.88 C 409.81 481.50 408.91 487.78 407.75 493.11 C 406.07 499.77 405.16 507.06 400.56 512.50 C 395.93 518.30 388.26 520.98 380.97 520.47 C 373.65 520.84 365.14 517.31 362.82 509.79 C 361.32 502.91 363.75 496.05 365.03 489.33 C 366.79 479.68 374.47 471.14 384.48 469.98 M 384.59 480.73 C 381.15 482.46 379.04 485.99 378.21 489.65 C 377.04 494.38 375.82 499.15 375.54 504.03 C 375.01 507.69 378.71 510.30 382.04 510.34 C 387.17 510.30 391.82 506.42 392.79 501.37 C 393.88 495.64 395.80 489.90 395.39 484.03 C 394.01 479.56 388.28 478.75 384.59 480.73 Z" />
<path fill="#f4f3f7" opacity="1.00" d=" M 421.40 470.42 C 428.60 470.51 435.80 470.36 443.01 470.49 C 448.27 470.62 454.14 472.49 457.00 477.24 C 459.69 481.88 458.30 487.54 456.28 492.14 C 453.85 497.85 447.90 501.33 441.97 502.30 C 436.95 502.74 431.90 502.38 426.88 502.62 C 426.13 508.34 424.52 513.89 423.20 519.49 C 418.94 519.72 414.66 519.73 410.40 519.43 C 412.12 508.93 414.97 498.67 416.89 488.22 C 418.28 482.26 419.05 476.10 421.40 470.42 M 431.70 480.42 C 430.61 484.41 429.64 488.44 429.14 492.55 C 433.78 492.14 439.72 494.20 443.18 490.05 C 445.48 487.97 444.75 484.50 444.51 481.76 C 440.73 479.27 435.94 480.70 431.70 480.42 Z" />
<path fill="#f4f3f7" opacity="1.00" d=" M 654.26 487.86 C 658.42 486.87 662.78 487.21 667.03 487.24 C 673.97 487.15 680.71 492.34 682.21 499.15 C 682.84 503.29 681.84 507.42 681.08 511.48 C 679.56 518.13 677.93 525.14 673.44 530.49 C 668.75 535.44 661.69 537.52 655.01 537.50 C 649.25 537.79 643.33 535.80 639.07 531.89 C 635.08 527.80 634.96 521.61 636.16 516.36 C 637.63 509.78 638.72 502.91 642.18 497.00 C 644.75 492.47 649.38 489.44 654.26 487.86 M 657.29 498.08 C 653.94 499.85 652.58 503.62 651.69 507.07 C 650.21 512.72 648.28 518.66 649.63 524.53 C 651.78 527.73 656.39 528.04 659.66 526.55 C 663.49 524.99 665.50 521.04 666.45 517.23 C 667.93 511.35 669.77 505.10 668.23 499.04 C 665.43 496.31 660.68 497.00 657.29 498.08 Z" />
<path fill="#f4f3f7" opacity="1.00" d=" M 694.51 487.46 C 702.02 487.51 709.53 487.40 717.05 487.49 C 722.55 487.60 728.62 490.05 731.13 495.27 C 733.64 503.70 729.50 514.02 721.17 517.48 C 714.67 520.50 707.38 519.28 700.47 519.56 C 698.95 525.21 698.37 531.08 696.50 536.64 C 692.37 536.64 688.23 536.67 684.11 536.51 C 685.16 528.35 687.31 520.37 688.80 512.28 C 690.98 504.07 692.04 495.60 694.51 487.46 M 705.39 497.38 C 703.98 501.29 703.29 505.41 703.03 509.56 C 707.63 509.31 713.60 511.09 716.77 506.67 C 719.03 504.18 719.94 498.83 715.90 497.61 C 712.41 497.23 708.89 497.45 705.39 497.38 Z" />
<path fill="#f4f3f7" opacity="1.00" d=" M 438.65 714.28 C 440.99 714.39 443.63 714.15 445.39 716.04 C 445.75 718.86 445.26 721.85 446.37 724.56 C 447.98 728.71 451.69 731.45 454.67 734.58 C 449.25 735.42 443.52 732.92 440.67 728.20 C 438.41 723.98 436.72 718.95 438.65 714.28 Z" />
<path fill="#f4f3f7" opacity="1.00" d=" M 276.93 884.08 C 280.36 884.26 282.68 886.94 285.17 888.95 C 293.88 895.82 304.52 899.38 314.31 904.37 C 307.24 905.04 300.57 902.13 293.88 900.36 C 289.52 904.15 285.77 908.60 281.56 912.57 C 275.80 918.21 269.16 922.81 262.81 927.74 C 256.58 932.22 250.40 936.88 243.45 940.23 C 243.46 939.04 243.46 937.86 243.47 936.69 C 248.32 933.57 252.70 929.80 257.42 926.49 C 262.47 922.52 267.99 919.14 272.56 914.58 C 277.62 910.36 282.91 906.15 286.45 900.49 C 287.07 898.56 286.77 896.24 284.94 895.10 C 281.22 892.31 278.41 888.49 276.93 884.08 Z" />
<path fill="#f4f3f7" opacity="1.00" d=" M 316.18 887.34 C 322.32 887.55 328.54 887.06 334.56 888.61 C 338.50 889.70 342.66 889.20 346.59 890.29 C 336.79 891.07 327.01 889.93 317.25 889.30 C 317.29 891.60 317.33 893.92 317.22 896.24 C 316.63 893.30 316.41 890.31 316.18 887.34 Z" />
<path fill="#f4f3f7" opacity="1.00" d=" M 325.95 922.99 C 321.43 915.02 317.73 906.21 318.36 896.86 C 319.16 901.03 319.12 905.55 321.67 909.17 C 326.68 916.87 330.74 925.20 336.73 932.24 C 342.62 940.87 350.38 947.93 357.88 955.12 C 366.88 963.43 377.24 971.60 389.85 972.94 C 389.32 975.42 388.49 980.20 384.98 979.24 C 373.82 976.05 364.93 968.08 356.45 960.53 C 344.69 949.46 333.56 937.37 325.95 922.99 Z" />
</g>
<g id="#020206ff">
<path fill="#020206" opacity="1.00" d=" M 254.56 112.54 C 260.69 107.50 269.01 106.08 276.74 106.69 C 288.18 108.91 297.41 116.54 306.26 123.64 C 317.00 131.84 325.62 142.32 334.78 152.15 C 338.61 156.98 343.34 160.99 347.20 165.80 C 355.58 175.72 364.42 185.26 372.32 195.58 C 377.13 202.36 382.86 208.48 386.97 215.75 C 387.76 215.65 389.33 215.46 390.12 215.37 C 389.45 215.67 388.11 216.26 387.44 216.56 C 397.60 229.63 405.53 244.27 415.45 257.50 C 427.62 269.92 443.23 278.08 457.89 287.14 C 461.78 289.39 465.84 291.51 468.93 294.86 C 474.14 292.81 478.88 287.82 484.92 289.63 C 489.91 290.73 490.80 296.60 494.41 299.51 C 490.24 304.12 484.16 306.38 479.98 310.97 C 466.18 324.34 458.72 342.37 450.33 359.28 C 447.88 364.52 446.08 370.06 443.35 375.19 C 440.55 380.43 441.58 386.56 441.65 392.25 C 446.43 394.61 451.48 396.35 456.27 398.69 C 468.57 404.34 478.97 413.14 489.19 421.85 C 495.87 427.89 500.64 435.73 507.05 441.99 C 509.64 441.32 511.03 438.66 513.35 437.46 C 520.56 433.28 529.07 432.84 537.13 431.73 C 550.40 430.73 563.81 432.58 576.48 436.56 C 581.83 438.26 586.41 441.62 590.13 445.78 C 596.32 439.71 601.97 432.98 609.23 428.11 C 617.34 422.85 626.15 418.74 635.13 415.19 C 655.92 404.69 680.22 402.37 702.98 406.44 C 707.31 407.13 711.49 409.03 715.95 408.66 C 721.14 408.41 726.33 408.64 731.52 408.81 C 726.09 405.92 720.79 402.80 715.84 399.16 C 712.30 396.45 707.61 395.70 704.36 392.59 C 700.95 389.50 696.51 387.92 692.92 385.09 C 688.28 381.43 684.02 377.27 678.96 374.18 C 670.92 369.62 662.53 365.71 654.20 361.72 C 659.52 357.57 664.08 352.51 669.78 348.85 C 678.10 342.39 687.68 337.46 697.84 334.65 C 708.05 332.82 718.50 333.92 728.78 334.59 C 748.05 336.43 765.27 345.85 783.05 352.66 C 776.22 347.55 769.11 342.63 760.97 339.83 C 748.95 334.77 736.09 331.02 722.95 331.23 C 718.33 330.75 713.70 330.71 709.08 330.40 C 720.59 325.04 733.46 323.24 746.07 323.46 C 762.40 323.96 777.65 330.56 792.06 337.72 C 781.47 329.91 769.58 323.28 756.43 321.19 C 747.23 318.68 737.60 319.45 728.33 321.03 C 718.55 323.33 708.75 325.65 699.24 328.90 C 687.51 332.56 677.07 339.24 666.75 345.71 C 660.41 350.87 653.06 354.65 647.11 360.30 C 654.84 350.94 661.19 340.45 669.82 331.82 C 681.00 318.72 694.78 308.10 709.46 299.24 C 717.35 295.87 724.96 291.74 733.25 289.39 C 749.45 284.40 766.98 283.67 783.49 287.51 C 773.61 280.90 761.23 282.20 749.96 282.39 C 727.00 285.00 705.76 295.77 687.41 309.41 C 674.40 319.62 663.08 331.81 652.89 344.79 C 650.58 347.85 646.88 349.62 645.13 353.16 C 641.00 359.13 639.20 366.62 633.78 371.66 C 633.50 366.14 632.52 360.48 633.80 355.02 C 638.01 341.95 642.44 328.91 648.45 316.54 C 662.18 286.35 683.77 260.33 708.47 238.46 C 721.68 226.53 736.49 216.30 752.49 208.46 C 764.20 203.69 776.88 199.93 789.64 201.86 C 791.98 202.35 794.36 202.60 796.78 202.52 C 790.20 197.20 780.91 198.35 772.98 198.65 C 756.47 201.28 741.05 208.84 727.61 218.60 C 709.34 230.94 693.57 246.55 678.99 262.99 C 666.84 277.24 655.65 292.54 647.76 309.60 C 639.79 325.32 633.63 342.00 630.19 359.31 C 625.21 351.31 620.40 343.04 613.63 336.38 C 604.83 327.25 597.19 316.41 585.51 310.72 C 583.31 309.27 580.62 309.60 578.16 309.13 C 571.88 303.02 565.80 296.21 563.20 287.65 C 558.90 292.82 552.97 296.38 546.51 298.17 C 541.90 299.10 536.98 298.39 532.76 296.32 C 528.60 293.87 525.63 289.83 523.29 285.69 C 521.84 283.38 522.51 280.56 522.39 278.01 C 527.35 284.03 532.07 291.86 540.41 293.24 C 545.21 293.76 550.21 293.78 554.73 291.89 C 558.82 290.58 562.12 287.72 566.05 286.09 C 569.20 290.90 572.09 296.05 576.79 299.57 C 576.74 300.76 576.69 301.95 576.64 303.15 C 580.84 299.46 586.78 299.49 592.06 299.28 C 595.13 299.08 597.75 301.98 600.82 301.20 C 606.03 296.16 610.06 290.13 614.21 284.23 C 622.97 274.18 630.11 262.84 638.63 252.58 C 658.01 228.52 678.46 205.17 701.30 184.30 C 720.48 167.17 741.92 151.63 766.61 143.62 C 775.67 141.10 785.39 140.26 794.68 141.95 C 802.94 143.85 810.17 149.09 815.40 155.66 C 821.74 164.26 825.76 174.33 828.85 184.49 C 832.35 194.96 832.46 206.12 833.23 217.03 C 832.22 228.93 831.38 240.87 829.43 252.67 C 826.06 269.13 822.00 285.48 816.37 301.33 C 812.85 312.46 807.96 323.16 805.36 334.58 C 803.28 343.31 800.78 352.01 800.13 361.00 C 799.62 364.38 798.82 367.70 797.99 371.02 C 796.83 375.30 798.48 379.79 797.27 384.08 C 794.51 392.98 789.83 401.10 785.01 409.01 C 781.88 414.09 775.97 416.57 772.72 421.50 C 771.19 427.67 774.55 433.38 778.61 437.72 C 778.99 432.70 778.15 427.63 778.61 422.64 C 781.59 418.91 785.55 416.01 787.89 411.77 C 792.42 404.02 797.76 396.61 800.60 388.02 C 799.60 393.10 799.45 398.33 797.92 403.31 C 795.52 415.64 789.27 427.63 791.71 440.50 C 792.46 440.53 793.95 440.58 794.69 440.61 C 795.24 438.13 795.46 435.61 795.63 433.09 C 796.39 423.71 800.63 415.10 802.18 405.88 C 803.04 400.21 805.56 394.83 805.34 389.00 C 806.13 380.64 803.75 372.33 805.16 364.01 C 805.33 352.97 806.25 341.74 810.08 331.29 C 812.00 325.87 813.78 320.39 816.13 315.14 C 817.53 312.14 819.46 309.43 821.60 306.92 C 821.30 315.65 815.92 323.16 814.89 331.80 C 813.51 338.54 811.79 345.23 810.60 352.00 C 810.70 357.37 809.24 362.61 809.50 367.98 C 809.16 380.22 810.31 392.58 807.92 404.65 C 805.37 414.55 801.43 424.00 797.43 433.39 C 794.29 440.76 798.23 448.44 801.10 455.21 C 800.55 455.58 799.47 456.32 798.93 456.69 C 801.52 462.16 803.20 467.91 804.68 473.76 C 806.21 472.78 807.73 471.77 809.25 470.74 C 812.52 475.03 815.02 479.81 817.97 484.32 C 812.76 481.91 807.15 480.20 802.72 476.40 C 796.55 473.94 789.64 474.15 783.12 473.17 C 783.33 474.48 783.56 475.81 783.79 477.13 C 789.75 478.35 795.71 479.72 801.54 481.51 C 804.37 482.32 804.53 485.74 805.10 488.14 C 805.66 494.04 805.69 500.04 805.17 505.94 C 801.33 510.33 794.57 510.66 790.80 515.10 C 789.31 519.27 789.71 523.74 788.88 528.03 C 785.97 548.30 777.97 568.08 764.66 583.78 C 755.23 595.12 743.65 604.99 730.14 611.09 C 722.98 614.84 715.36 618.16 707.22 618.83 C 699.53 620.04 691.78 620.60 684.00 620.36 C 646.24 621.85 608.98 600.65 589.68 568.38 C 585.69 562.00 582.66 555.08 579.95 548.08 C 577.50 541.75 572.76 536.63 570.31 530.30 C 566.82 521.69 565.87 512.36 563.92 503.35 C 563.03 499.72 561.59 495.86 558.37 493.69 C 553.60 490.43 547.64 489.99 542.05 489.74 C 536.66 489.70 530.70 490.77 526.90 494.92 C 523.72 498.12 522.44 502.57 520.90 506.69 C 518.70 512.93 515.91 518.94 513.06 524.91 C 510.80 529.78 509.42 535.01 507.01 539.82 C 499.59 555.94 488.44 570.51 474.23 581.23 C 461.34 591.43 445.78 598.02 429.73 601.30 C 425.10 601.94 420.73 603.90 415.99 603.60 C 412.72 605.18 409.23 604.88 405.97 603.52 C 395.68 603.41 385.49 601.26 375.67 598.30 C 372.74 596.91 370.30 600.01 367.61 600.76 C 360.61 602.74 353.21 602.18 346.00 602.26 C 334.33 602.39 322.66 602.24 311.00 602.68 C 304.55 603.65 297.99 603.02 291.58 604.30 C 282.02 604.39 272.60 606.21 263.08 606.89 C 254.20 608.59 244.89 608.24 236.30 611.16 C 241.46 611.86 246.76 611.47 251.93 610.94 C 272.77 609.26 293.70 608.75 314.60 609.47 C 326.52 609.94 339.01 609.75 350.13 614.66 C 355.08 617.28 360.96 620.32 362.43 626.23 C 363.03 629.61 362.15 633.04 362.12 636.45 C 351.74 636.83 341.35 637.44 331.01 638.51 C 315.77 640.21 300.82 643.70 285.77 646.58 C 275.24 648.59 264.97 651.73 254.46 653.79 C 248.76 655.13 242.97 656.07 237.31 657.62 C 232.56 658.40 227.89 659.54 223.25 660.81 C 217.47 662.43 211.36 662.94 205.84 665.42 C 213.91 664.16 221.64 661.38 229.71 660.12 C 234.68 659.11 239.75 658.78 244.78 658.28 C 250.64 656.09 257.01 656.20 263.05 654.76 C 280.28 651.02 297.45 647.04 314.84 644.12 C 328.39 641.33 342.23 640.86 355.95 639.50 C 358.48 639.37 361.02 639.32 363.55 639.31 C 365.41 645.32 367.58 651.24 370.49 656.84 C 350.30 666.43 329.49 674.67 308.52 682.40 C 302.74 684.37 296.84 685.99 290.97 687.70 C 283.43 689.89 275.49 690.48 268.07 693.10 C 272.38 693.76 276.61 692.27 280.87 691.83 C 303.00 689.29 323.44 679.96 344.06 672.13 C 354.37 668.25 364.02 662.74 374.40 659.05 C 379.48 665.89 386.16 671.36 391.11 678.29 C 379.03 685.92 366.28 692.49 354.37 700.44 C 342.01 708.06 331.70 718.39 320.56 727.60 C 313.10 734.83 305.23 741.62 297.68 748.76 C 292.82 753.67 286.48 756.71 281.68 761.69 C 279.05 757.41 276.74 752.61 272.43 749.75 C 266.27 746.27 258.95 746.16 252.08 746.67 C 252.95 740.23 258.06 735.27 263.47 732.18 C 263.54 731.78 263.68 730.97 263.75 730.57 C 259.36 728.10 255.36 731.92 251.10 732.61 C 248.08 732.34 245.71 730.00 242.79 729.36 C 240.20 729.02 237.60 729.34 235.01 729.43 C 233.32 729.45 231.64 729.39 229.97 729.17 C 228.31 728.51 227.51 726.86 226.62 725.44 C 226.34 726.72 226.22 728.10 225.43 729.21 C 223.23 730.67 220.38 730.62 217.92 729.95 C 224.64 723.64 231.41 717.23 236.28 709.32 C 236.77 708.07 236.40 706.71 236.43 705.42 C 230.32 705.44 223.77 704.90 218.16 707.81 C 222.70 703.79 225.18 698.09 228.19 692.95 C 229.26 690.92 230.73 689.15 232.44 687.64 C 230.67 687.67 228.88 687.76 227.13 687.48 C 225.39 686.46 223.94 685.03 222.36 683.79 C 220.05 682.43 217.19 684.12 214.67 683.40 C 208.87 682.00 202.87 683.46 197.06 682.20 C 198.31 680.76 199.56 679.32 200.80 677.88 C 198.71 674.30 194.83 673.12 190.93 673.02 C 189.89 670.64 188.57 668.13 188.71 665.48 C 192.32 659.32 198.71 655.56 203.16 650.10 C 207.52 645.24 210.44 639.34 212.82 633.32 C 209.14 635.41 205.49 637.64 201.51 639.13 C 196.76 640.70 191.38 641.01 187.34 644.25 C 185.74 645.44 185.31 647.51 184.47 649.22 C 183.21 649.78 181.94 650.35 180.68 650.93 C 177.63 648.73 177.02 645.25 177.45 641.72 C 182.03 640.02 184.08 635.43 186.83 631.77 C 189.71 627.88 191.48 623.31 194.39 619.43 C 197.14 615.75 198.39 611.27 200.31 607.15 C 201.72 604.14 202.76 600.97 203.58 597.76 C 194.29 596.53 186.24 602.46 177.46 604.43 C 182.40 604.76 187.35 604.54 192.29 604.74 C 188.64 608.27 183.46 609.58 178.54 608.41 C 175.31 607.37 170.73 606.10 171.24 601.84 C 186.40 594.44 196.83 580.43 205.43 566.39 C 207.90 562.25 211.58 558.37 211.64 553.28 C 210.00 553.77 208.39 554.36 206.73 554.77 C 200.97 555.84 195.57 558.49 189.68 558.83 C 189.18 558.75 188.17 558.60 187.67 558.53 C 187.59 557.34 187.53 556.17 187.47 555.00 C 195.56 552.00 201.64 545.57 207.43 539.44 C 210.59 535.35 214.27 530.84 213.74 525.33 C 211.01 525.49 208.30 525.91 205.63 526.49 C 202.89 524.14 200.01 521.64 199.09 517.99 C 204.51 515.41 208.25 510.53 212.52 506.48 C 218.38 500.56 220.49 492.31 223.99 484.99 C 226.82 478.78 229.10 472.03 234.00 467.07 C 238.70 462.73 242.94 457.92 247.55 453.50 C 247.60 448.51 242.99 444.86 242.49 439.93 C 242.14 435.95 242.23 431.95 242.42 427.98 C 242.58 423.76 244.82 420.03 245.65 415.96 C 242.19 408.84 237.44 402.33 234.99 394.73 C 228.01 377.42 223.50 358.06 227.85 339.54 C 224.98 337.33 223.82 333.82 222.70 330.53 C 219.31 320.11 217.02 309.37 215.24 298.57 C 210.82 273.34 207.86 247.58 210.37 221.96 C 211.55 207.71 215.50 193.91 218.79 180.06 C 220.14 174.82 222.23 169.81 223.97 164.70 C 227.63 152.99 233.00 141.86 239.28 131.34 C 243.64 124.55 248.31 117.75 254.56 112.54 M 264.27 226.64 C 264.45 226.92 264.82 227.46 265.00 227.73 C 268.39 228.32 271.79 228.92 275.16 229.69 C 301.97 236.47 324.45 253.43 346.06 269.91 C 353.02 274.87 359.02 280.98 365.76 286.22 C 371.25 290.93 376.08 296.51 382.30 300.31 C 380.84 297.37 378.16 295.39 376.10 292.92 C 372.40 288.30 367.70 284.64 363.56 280.44 C 356.19 274.13 349.22 267.34 341.25 261.77 C 326.72 250.87 311.63 240.43 294.91 233.17 C 289.04 230.83 282.87 229.31 276.70 228.02 L 276.73 227.62 C 272.57 227.40 268.42 227.07 264.27 226.64 M 268.47 280.64 C 261.70 281.81 255.87 285.57 249.92 288.76 C 268.16 280.66 288.56 279.36 308.24 280.57 C 317.42 281.87 326.61 283.56 335.36 286.71 C 340.81 288.74 346.58 289.85 351.84 292.38 C 354.51 293.73 357.54 293.67 360.44 293.66 C 346.36 285.87 330.72 281.19 314.88 278.65 C 299.47 276.62 283.59 276.72 268.47 280.64 M 290.22 309.33 C 281.99 314.16 273.40 318.83 267.07 326.17 C 273.46 320.52 280.75 316.07 288.53 312.60 C 297.13 307.83 306.68 305.30 315.96 302.23 C 324.74 299.44 333.93 298.55 343.00 297.25 C 349.19 296.28 355.48 296.96 361.71 296.47 C 359.23 295.63 356.73 294.64 354.09 294.59 C 332.00 293.72 309.97 299.66 290.22 309.33 M 691.70 319.93 C 686.82 322.27 682.94 326.07 678.82 329.47 C 682.93 326.36 687.73 324.40 692.33 322.13 C 700.59 317.60 709.45 314.39 718.36 311.39 C 731.33 306.23 745.29 304.65 758.83 301.68 C 763.26 301.26 767.73 301.53 772.16 300.98 C 744.13 298.06 716.31 307.10 691.70 319.93 M 272.38 341.43 C 265.89 345.41 259.63 349.87 253.91 354.89 C 262.34 349.07 271.19 343.76 280.62 339.69 C 288.64 335.81 297.10 332.75 305.91 331.28 C 318.36 329.21 331.21 328.48 343.70 330.68 C 361.85 333.46 380.34 339.26 394.21 351.78 C 403.53 359.25 411.16 368.74 416.88 379.20 C 419.32 382.61 420.64 387.19 424.66 389.14 C 422.61 381.79 419.14 374.72 414.12 368.93 C 408.28 360.91 402.18 352.78 394.09 346.89 C 381.41 336.96 365.64 332.11 350.16 328.53 C 345.19 327.21 340.00 327.60 334.95 326.75 C 313.32 325.23 290.74 329.51 272.38 341.43 M 278.69 348.94 C 268.53 353.77 259.15 360.52 252.13 369.37 C 254.31 367.81 256.08 365.75 258.23 364.14 C 269.11 356.71 280.11 348.79 292.94 345.18 C 288.08 345.92 283.15 346.77 278.69 348.94 M 710.92 348.08 C 721.91 348.16 732.97 348.48 743.70 351.10 C 758.11 353.55 770.45 361.83 783.97 366.84 C 767.56 353.37 746.18 346.14 725.00 346.34 C 720.21 346.16 715.69 347.97 710.92 348.08 M 427.58 375.60 C 427.39 380.35 428.80 385.01 430.59 389.36 C 432.03 390.28 433.77 390.44 435.39 390.89 C 432.14 386.13 430.69 380.43 427.58 375.60 M 396.33 402.87 C 377.25 405.34 359.31 414.28 345.01 427.02 C 331.36 440.17 321.08 457.10 317.34 475.80 C 314.65 485.31 315.39 495.27 315.57 505.02 C 316.82 514.94 319.07 524.82 323.18 533.98 C 329.24 548.09 339.46 559.98 351.24 569.65 C 361.88 577.67 374.21 583.28 387.08 586.59 C 395.91 588.22 404.91 590.14 413.94 589.06 C 420.36 588.22 426.86 587.66 433.11 585.83 C 452.66 580.08 470.88 568.72 483.14 552.27 C 494.74 535.97 502.64 516.26 501.72 496.00 C 502.37 481.89 499.11 467.72 492.90 455.07 C 484.07 438.24 471.13 423.06 454.31 413.85 C 444.02 407.97 432.36 405.07 420.83 402.77 C 412.69 402.20 404.45 401.99 396.33 402.87 M 668.44 419.81 C 651.10 422.37 634.62 430.03 621.16 441.19 C 603.29 457.21 590.93 479.89 589.17 504.01 C 587.57 513.74 589.28 523.62 591.11 533.20 C 592.58 541.81 596.41 549.77 600.32 557.50 C 616.26 586.58 648.61 606.48 682.00 605.65 C 711.00 606.43 739.25 591.41 756.65 568.53 C 764.98 556.80 771.84 543.61 773.93 529.23 C 777.89 510.11 774.93 489.82 766.50 472.28 C 753.16 442.90 723.09 422.17 691.03 419.44 C 683.50 419.38 675.93 419.02 668.44 419.81 M 280.23 441.97 C 278.07 442.61 275.35 442.30 273.66 443.94 C 273.22 450.40 275.21 456.68 276.50 462.94 L 277.55 464.36 C 278.04 460.40 277.16 456.40 277.68 452.46 C 279.43 447.26 285.58 446.74 290.13 445.67 C 297.91 443.78 305.94 443.23 313.68 441.21 C 313.69 440.57 313.69 439.29 313.70 438.65 C 302.43 437.58 291.32 440.35 280.23 441.97 M 526.94 452.97 C 521.27 457.93 521.77 465.91 522.53 472.70 C 527.74 472.44 532.73 470.46 537.99 470.67 C 548.57 470.89 559.30 472.35 569.03 476.70 C 572.66 471.07 575.06 464.23 573.31 457.52 C 569.01 450.67 560.16 449.97 552.95 448.70 C 544.23 448.42 534.38 447.51 526.94 452.97 Z" />
<path fill="#020206" opacity="1.00" d=" M 497.14 294.71 C 505.09 289.42 514.37 285.94 521.11 279.00 C 519.42 281.95 518.30 285.35 515.70 287.68 C 511.21 291.81 505.67 294.59 499.97 296.66 C 499.27 296.17 497.85 295.19 497.14 294.71 Z" />
<path fill="#020206" opacity="1.00" d=" M 806.42 486.85 C 814.71 489.47 823.15 491.73 831.17 495.15 C 832.77 496.69 834.22 498.39 835.67 500.08 C 832.50 501.31 829.24 502.30 825.98 503.25 C 830.52 508.40 834.41 514.06 837.83 520.01 C 838.66 521.40 839.32 522.91 839.60 524.52 C 836.72 525.93 834.04 527.71 831.71 529.91 C 830.19 527.95 828.87 525.59 826.50 524.56 C 824.39 523.49 821.89 523.34 819.93 522.02 C 817.82 519.83 817.07 516.75 816.37 513.90 C 816.76 513.57 817.55 512.92 817.94 512.60 C 822.79 511.96 827.69 512.53 832.57 512.54 C 827.35 507.26 821.52 502.62 815.32 498.55 C 812.49 496.91 809.15 496.16 806.67 493.95 C 806.43 491.59 806.47 489.21 806.42 486.85 Z" />
<path fill="#020206" opacity="1.00" d=" M 817.98 540.62 C 824.70 539.85 831.25 542.57 836.64 546.40 C 840.37 549.03 842.82 552.96 845.51 556.56 C 847.35 559.16 850.40 560.31 853.06 561.87 C 853.53 562.96 853.87 564.12 854.08 565.33 C 852.51 565.47 850.96 565.60 849.41 565.73 C 848.40 573.76 854.18 580.12 856.99 587.12 C 851.68 582.37 848.02 576.04 845.52 569.43 C 843.45 563.76 840.50 558.48 837.79 553.12 C 833.98 545.72 825.59 542.50 817.98 540.62 Z" />
<path fill="#020206" opacity="1.00" d=" M 498.43 576.41 C 504.02 571.91 510.41 567.02 517.97 567.35 C 528.97 567.07 540.02 567.03 550.95 568.33 C 559.14 568.11 567.51 568.75 575.17 571.89 C 581.49 574.70 587.20 580.18 588.57 587.12 C 589.23 590.90 584.48 591.38 582.20 593.17 C 578.85 595.68 574.56 596.19 570.54 595.36 C 567.95 594.25 566.15 592.01 564.05 590.24 C 559.27 592.62 555.29 598.31 557.41 603.74 C 558.12 607.16 561.58 609.91 560.45 613.63 C 559.16 618.86 553.56 620.61 550.11 624.10 C 544.85 628.88 543.61 636.26 542.67 642.96 C 542.41 647.65 542.33 652.86 545.26 656.82 C 549.79 664.07 555.76 670.27 561.83 676.23 C 571.35 683.98 581.49 691.39 593.20 695.46 C 597.06 696.93 601.25 697.84 604.59 700.41 C 592.75 701.98 580.92 698.25 570.12 693.74 C 560.25 689.79 552.23 682.65 544.31 675.78 C 542.52 674.26 540.18 672.32 537.74 673.67 C 533.19 675.95 529.60 679.68 525.31 682.36 C 508.63 693.88 489.24 701.87 468.96 703.77 C 461.92 704.85 454.78 704.39 447.69 704.72 C 449.21 709.31 452.79 712.76 455.22 716.85 C 458.45 721.41 460.02 727.14 464.54 730.72 C 465.42 729.23 466.29 727.73 467.17 726.25 C 473.29 733.00 478.53 741.08 487.15 744.96 C 486.10 742.89 484.81 740.97 483.61 739.01 C 492.68 745.27 502.89 750.25 513.95 751.46 C 519.32 751.26 524.65 752.88 529.99 751.75 C 542.68 751.46 555.04 747.28 565.99 741.01 C 572.30 738.03 577.85 733.72 583.22 729.33 C 589.85 723.26 596.84 717.57 602.94 710.94 C 604.99 708.61 607.69 706.50 610.96 706.56 C 615.65 706.55 620.26 705.62 624.94 705.50 C 634.15 704.74 642.65 700.93 651.29 697.99 C 651.39 699.12 651.58 701.38 651.68 702.51 C 643.81 707.41 635.10 710.97 625.97 712.69 C 621.06 713.45 618.48 718.07 615.49 721.49 C 608.23 729.63 600.24 737.16 591.29 743.42 C 572.56 755.54 549.97 760.45 527.89 760.65 C 528.08 761.18 528.44 762.22 528.63 762.75 C 532.66 765.57 536.40 768.83 540.66 771.32 C 550.68 776.40 560.80 781.97 572.11 783.47 C 581.02 784.60 590.00 785.51 598.99 785.31 C 602.35 785.33 605.75 785.62 609.06 784.80 C 589.23 792.24 567.61 791.12 546.96 788.73 C 538.00 788.06 528.99 788.05 520.01 788.12 C 504.32 788.36 488.57 788.18 473.00 790.23 C 456.66 791.59 440.52 794.65 424.47 797.90 C 404.57 802.22 384.85 808.62 367.46 819.41 C 359.82 823.82 352.89 829.30 345.76 834.47 C 343.43 833.13 341.14 831.71 339.10 829.96 C 331.87 823.82 324.88 817.41 317.85 811.05 C 308.89 803.67 300.17 796.00 290.90 789.01 C 286.70 785.98 283.13 782.19 279.70 778.34 C 278.32 775.04 277.77 771.48 277.19 767.97 C 278.38 767.41 279.57 766.87 280.75 766.28 C 283.35 763.12 285.74 759.60 289.48 757.50 C 313.28 738.30 335.02 716.46 360.76 699.74 C 371.89 693.04 382.66 685.47 394.83 680.74 C 398.65 684.36 402.37 688.14 406.61 691.28 C 411.46 694.88 417.62 695.53 423.34 696.81 C 410.47 705.39 396.78 712.88 385.08 723.10 C 379.54 728.22 374.27 733.61 368.96 738.97 C 360.78 747.65 351.89 755.68 344.14 764.76 C 363.24 745.57 382.61 726.23 405.40 711.39 C 412.68 707.00 419.86 702.42 427.37 698.44 C 432.19 695.76 437.81 696.95 442.99 695.83 C 474.16 694.42 505.40 681.88 526.88 658.85 C 533.24 651.79 535.52 641.71 534.00 632.47 C 532.43 624.18 525.52 618.73 520.26 612.73 C 517.87 610.16 520.66 607.22 521.73 604.78 C 523.92 600.94 524.44 595.28 521.05 592.00 C 517.61 590.05 513.70 587.96 509.62 588.77 C 507.07 590.37 505.54 594.16 502.01 593.51 C 497.93 593.20 493.48 590.77 491.84 586.86 C 490.63 582.09 495.59 579.30 498.43 576.41 M 438.65 714.28 C 436.72 718.95 438.41 723.98 440.67 728.20 C 443.52 732.92 449.25 735.42 454.67 734.58 C 451.69 731.45 447.98 728.71 446.37 724.56 C 445.26 721.85 445.75 718.86 445.39 716.04 C 443.63 714.15 440.99 714.39 438.65 714.28 Z" />
<path fill="#020206" opacity="1.00" d=" M 843.31 584.03 C 846.93 586.14 850.68 588.18 854.82 589.10 C 859.26 590.07 863.27 592.57 866.18 596.07 C 864.30 597.11 862.17 600.11 859.94 598.10 C 853.99 593.94 847.23 590.39 843.31 584.03 Z" />
<path fill="#020206" opacity="1.00" d=" M 831.15 593.34 C 836.38 593.02 841.00 595.76 845.81 597.34 C 852.75 599.70 859.18 603.65 866.50 604.80 C 866.54 606.13 866.58 607.45 866.64 608.80 C 860.23 608.90 854.43 605.10 848.02 605.63 C 845.82 605.82 845.21 608.11 845.57 609.97 C 846.68 611.64 848.13 613.05 849.44 614.58 C 851.71 617.43 855.56 618.51 857.45 621.75 C 854.65 621.88 852.36 620.31 850.20 618.78 C 841.16 612.75 835.95 602.76 831.15 593.34 Z" />
<path fill="#020206" opacity="1.00" d=" M 839.84 625.40 C 845.95 626.32 851.74 628.80 857.29 631.46 C 859.93 631.78 862.81 631.12 865.18 632.71 C 868.86 634.88 873.15 636.05 876.28 639.10 C 873.47 641.33 869.96 642.25 866.56 643.10 C 864.07 643.62 862.09 645.51 859.54 645.74 C 850.31 646.75 840.27 649.32 831.77 644.12 C 831.64 643.16 831.39 641.25 831.26 640.29 C 839.12 640.40 847.00 640.97 854.84 640.26 C 859.63 639.45 864.49 639.08 869.24 637.98 C 863.46 634.69 856.46 635.48 850.60 632.45 C 846.83 630.44 842.51 628.89 839.84 625.40 Z" />
<path fill="#020206" opacity="1.00" d=" M 839.66 661.16 C 844.21 656.38 849.53 652.31 855.78 650.02 C 853.36 651.79 850.84 653.69 849.67 656.56 C 847.98 660.62 844.98 663.89 841.97 667.01 C 840.88 667.78 841.03 669.13 841.51 670.21 C 843.42 671.52 845.48 672.58 847.45 673.83 C 846.91 673.79 845.83 673.70 845.29 673.65 C 840.15 673.48 835.16 672.00 830.49 669.93 C 830.51 669.26 830.54 667.91 830.56 667.24 C 833.45 666.18 836.55 666.37 839.58 666.28 C 839.62 664.56 839.62 662.86 839.66 661.16 Z" />
<path fill="#020206" opacity="1.00" d=" M 612.59 664.34 C 618.31 663.73 622.18 668.57 626.06 671.95 C 628.77 674.70 632.64 677.26 632.68 681.55 C 632.04 681.58 630.77 681.64 630.13 681.68 C 624.79 678.04 621.68 671.59 615.47 669.13 C 613.54 671.80 611.80 674.66 609.22 676.77 C 608.77 676.07 607.87 674.66 607.41 673.96 C 609.03 670.69 610.65 667.43 612.59 664.34 Z" />
<path fill="#020206" opacity="1.00" d=" M 445.95 666.89 C 449.85 664.59 454.58 665.44 458.86 665.89 C 462.13 666.22 464.72 668.31 466.98 670.53 C 466.04 671.63 465.21 674.09 463.52 672.52 C 459.02 669.37 453.31 670.06 448.18 669.15 C 447.62 668.58 446.50 667.46 445.95 666.89 Z" />
<path fill="#020206" opacity="1.00" d=" M 843.47 676.88 C 844.63 676.80 845.80 676.72 846.99 676.66 C 846.79 677.22 846.40 678.34 846.21 678.90 C 842.18 680.57 838.33 682.72 835.16 685.76 C 832.20 684.52 829.28 683.20 826.40 681.80 C 826.43 681.26 826.49 680.19 826.52 679.66 C 832.30 679.83 837.90 678.24 843.47 676.88 Z" />
<path fill="#020206" opacity="1.00" d=" M 203.53 684.47 C 207.59 684.28 211.89 684.15 215.28 686.81 C 213.79 688.19 212.30 690.27 209.96 689.59 C 206.75 689.92 205.33 686.45 203.53 684.47 Z" />
<path fill="#020206" opacity="1.00" d=" M 837.02 691.20 C 843.04 690.62 850.18 686.68 855.32 691.87 C 851.06 696.69 844.32 698.90 838.01 698.67 C 832.37 698.77 826.53 698.94 821.19 696.85 C 815.80 694.65 810.25 692.70 805.30 689.58 C 815.92 688.67 826.43 691.18 837.02 691.20 Z" />
<path fill="#020206" opacity="1.00" d=" M 220.29 690.76 C 220.89 691.06 222.08 691.66 222.67 691.96 C 221.27 696.45 219.19 700.71 216.83 704.78 C 218.47 700.24 219.80 695.58 220.29 690.76 Z" />
<path fill="#020206" opacity="1.00" d=" M 651.76 698.53 C 654.91 695.17 659.03 692.12 663.81 691.94 C 661.10 695.89 656.65 698.72 651.76 698.53 Z" />
<path fill="#020206" opacity="1.00" d=" M 806.09 719.13 C 809.74 709.78 819.52 704.33 829.17 703.39 C 825.69 706.84 823.16 711.08 819.99 714.76 C 812.44 719.52 812.00 729.76 805.17 735.22 C 805.22 736.57 805.28 737.92 805.35 739.29 C 805.52 742.37 804.88 745.43 803.80 748.31 L 802.73 749.43 C 801.56 739.28 802.61 728.76 806.09 719.13 Z" />
<path fill="#020206" opacity="1.00" d=" M 216.90 714.02 C 221.33 712.10 225.99 710.18 230.91 710.26 C 229.04 712.48 227.08 714.69 224.67 716.34 C 221.36 714.72 218.03 716.23 214.69 716.81 C 215.24 715.72 215.59 714.39 216.90 714.02 Z" />
<path fill="#020206" opacity="1.00" d=" M 237.69 733.30 C 242.34 733.28 246.61 735.29 250.98 736.64 C 250.38 738.68 249.73 740.70 249.15 742.76 C 246.95 741.64 244.65 740.69 242.60 739.30 C 240.71 737.52 239.30 735.31 237.69 733.30 Z" />
<path fill="#020206" opacity="1.00" d=" M 785.50 753.56 C 789.90 752.00 794.40 750.27 799.17 750.56 C 799.25 751.39 799.35 752.23 799.46 753.08 C 786.24 757.11 773.42 762.47 759.95 765.65 C 752.64 767.06 745.79 770.11 738.57 771.87 C 734.92 773.79 734.48 778.27 734.45 781.95 C 734.15 787.35 735.55 792.64 735.49 798.04 C 735.24 807.50 737.00 816.85 737.61 826.27 C 739.94 826.69 742.27 827.18 744.59 827.70 C 725.07 836.25 706.06 845.88 686.84 855.05 C 672.73 861.82 659.38 869.99 645.73 877.60 C 635.57 883.76 625.12 889.46 615.52 896.50 C 609.62 900.97 603.28 904.85 597.52 909.52 C 586.51 918.13 575.13 926.34 565.00 936.01 C 555.59 944.58 545.94 952.92 537.02 962.02 C 531.50 967.50 525.87 972.87 520.15 978.15 C 511.21 986.55 503.10 995.77 494.47 1004.47 C 476.58 1022.27 459.88 1041.20 442.52 1059.50 C 436.24 1066.50 430.02 1073.58 423.14 1080.00 L 324.09 1080.00 C 335.82 1066.62 346.04 1052.01 357.19 1038.15 C 364.43 1029.63 370.68 1020.33 377.59 1011.55 C 402.42 980.60 426.90 949.37 450.77 917.67 C 459.07 906.27 467.04 894.65 475.10 883.09 C 485.17 868.84 495.80 854.99 505.59 840.55 C 509.85 835.10 512.87 828.61 518.04 823.94 C 532.49 814.72 549.35 810.62 565.77 806.43 C 574.72 803.62 583.87 801.58 593.00 799.48 C 602.61 796.90 612.28 794.56 622.06 792.75 C 636.52 790.01 650.87 786.68 665.36 784.12 C 678.09 781.30 691.03 779.61 703.78 776.88 C 718.78 773.85 733.64 770.15 748.45 766.29 C 761.10 762.92 773.12 757.74 785.50 753.56 Z" />
<path fill="#020206" opacity="1.00" d=" M 250.28 751.42 C 257.30 751.38 264.97 750.15 271.39 753.71 C 275.43 756.29 278.52 760.80 278.77 765.66 C 275.74 764.70 272.82 763.39 270.04 761.85 C 266.92 759.35 262.65 759.96 259.45 757.72 C 256.25 755.78 252.12 755.04 250.28 751.42 Z" />
<path fill="#020206" opacity="1.00" d=" M 806.01 807.27 C 813.41 804.07 821.65 801.91 827.45 795.97 C 829.09 799.99 830.26 804.25 829.52 808.63 C 835.79 812.89 841.77 817.57 847.47 822.58 C 859.28 833.74 871.43 844.57 882.64 856.36 C 895.61 869.73 909.29 882.38 922.20 895.80 C 935.14 907.88 947.56 920.51 960.04 933.05 C 962.95 936.06 967.26 936.80 971.10 938.03 C 969.30 935.73 967.51 933.43 965.86 931.04 C 970.14 935.78 973.54 941.25 978.12 945.75 C 992.10 960.74 1004.04 977.46 1015.60 994.35 C 1028.78 1012.00 1043.11 1028.93 1054.16 1048.07 C 1058.13 1053.74 1060.91 1060.20 1065.60 1065.37 C 1069.60 1069.75 1072.35 1075.04 1075.55 1080.00 L 428.72 1080.00 C 438.13 1070.31 447.02 1060.12 456.36 1050.36 C 470.35 1035.04 484.89 1020.24 499.03 1005.05 C 524.18 979.17 550.03 953.94 577.25 930.24 C 592.38 917.91 608.04 906.22 624.09 895.12 C 636.26 887.01 649.09 879.99 661.85 872.86 C 671.30 867.02 681.23 862.02 691.07 856.88 C 711.93 846.41 733.05 836.41 754.67 827.63 C 771.26 819.60 788.47 812.91 806.01 807.27 Z" />
<path fill="#020206" opacity="1.00" d=" M 286.25 812.06 C 293.03 815.08 298.46 820.25 304.38 824.61 C 312.67 831.29 321.66 837.14 329.28 844.64 C 332.17 847.67 336.15 849.33 340.03 850.70 C 343.30 849.77 345.93 847.42 348.98 846.00 C 355.99 842.64 363.18 839.23 371.03 838.49 C 376.92 837.60 382.99 839.69 387.41 843.61 C 390.18 846.13 394.47 846.07 396.90 849.07 C 401.62 854.28 406.07 859.94 408.62 866.56 C 410.01 869.83 409.62 873.45 409.76 876.92 C 407.78 872.12 405.54 867.44 403.15 862.85 C 400.65 857.89 396.66 853.95 393.65 849.34 C 392.26 846.68 389.05 846.40 386.44 845.85 C 376.11 844.57 365.40 844.80 355.51 848.34 C 342.04 851.73 330.76 860.35 317.63 864.61 C 313.65 865.91 309.74 867.41 305.93 869.17 C 309.65 872.42 314.54 873.46 319.14 874.82 C 322.99 870.77 327.16 866.98 331.88 863.98 C 338.59 860.26 345.73 857.39 352.91 854.73 C 359.05 852.59 365.33 850.25 371.93 850.41 C 377.73 850.45 384.02 849.68 389.20 852.91 C 396.16 857.33 400.62 864.78 403.33 872.42 C 410.05 889.88 411.29 909.14 408.13 927.51 C 405.64 941.90 402.14 956.36 395.41 969.40 C 399.20 964.24 402.78 958.87 405.26 952.94 C 412.48 936.30 416.65 918.43 418.41 900.42 C 418.81 894.87 418.56 889.31 419.03 883.78 C 419.48 890.51 420.69 897.21 420.39 903.99 C 420.82 919.77 417.84 935.40 413.70 950.56 C 411.64 958.61 406.84 965.54 402.27 972.35 C 399.99 976.17 394.93 976.75 392.54 980.46 C 386.84 988.94 380.42 996.99 373.02 1004.06 C 369.07 1008.51 362.09 1006.99 357.50 1004.38 C 341.01 995.39 330.64 978.72 323.20 962.03 C 317.76 949.68 314.56 936.49 311.51 923.41 C 308.04 922.16 304.30 921.98 300.70 921.35 C 294.80 928.95 289.84 937.25 283.60 944.60 C 279.91 949.21 275.70 953.36 271.45 957.46 C 264.16 964.01 256.66 970.66 247.60 974.67 C 242.93 977.03 238.21 979.54 233.00 980.50 C 228.16 981.34 222.61 979.12 220.43 974.55 C 216.96 967.63 216.10 959.78 215.05 952.22 C 212.85 955.65 210.96 959.27 208.83 962.74 C 199.33 976.42 189.62 990.04 181.69 1004.73 C 175.09 1016.36 171.26 1029.26 167.26 1041.95 C 163.81 1054.70 159.75 1067.28 156.19 1080.00 L 94.16 1080.00 C 96.91 1072.09 99.05 1063.97 102.31 1056.25 C 109.46 1039.51 116.20 1022.61 122.81 1005.67 C 128.25 991.74 134.28 978.00 142.01 965.17 C 150.67 949.91 160.52 935.29 171.90 921.91 C 181.16 909.92 193.91 899.85 198.37 884.84 C 198.76 878.49 197.84 872.04 199.28 865.77 C 201.00 854.71 204.55 844.00 209.81 834.12 C 223.88 836.05 237.20 841.69 249.82 848.04 C 259.95 853.12 270.04 858.96 277.52 867.66 C 281.08 860.31 286.61 854.00 293.33 849.38 C 295.05 848.24 296.99 847.40 299.07 847.26 C 308.33 845.92 317.63 847.98 326.91 847.43 C 323.81 845.04 320.15 843.46 316.32 842.73 C 309.10 841.93 301.84 841.45 294.58 841.76 C 292.17 831.76 286.48 822.54 286.25 812.06 M 276.93 884.08 C 278.41 888.49 281.22 892.31 284.94 895.10 C 286.77 896.24 287.07 898.56 286.45 900.49 C 282.91 906.15 277.62 910.36 272.56 914.58 C 267.99 919.14 262.47 922.52 257.42 926.49 C 252.70 929.80 248.32 933.57 243.47 936.69 C 243.46 937.86 243.46 939.04 243.45 940.23 C 250.40 936.88 256.58 932.22 262.81 927.74 C 269.16 922.81 275.80 918.21 281.56 912.57 C 285.77 908.60 289.52 904.15 293.88 900.36 C 300.57 902.13 307.24 905.04 314.31 904.37 C 304.52 899.38 293.88 895.82 285.17 888.95 C 282.68 886.94 280.36 884.26 276.93 884.08 M 316.18 887.34 C 316.41 890.31 316.63 893.30 317.22 896.24 C 317.33 893.92 317.29 891.60 317.25 889.30 C 327.01 889.93 336.79 891.07 346.59 890.29 C 342.66 889.20 338.50 889.70 334.56 888.61 C 328.54 887.06 322.32 887.55 316.18 887.34 M 325.95 922.99 C 333.56 937.37 344.69 949.46 356.45 960.53 C 364.93 968.08 373.82 976.05 384.98 979.24 C 388.49 980.20 389.32 975.42 389.85 972.94 C 377.24 971.60 366.88 963.43 357.88 955.12 C 350.38 947.93 342.62 940.87 336.73 932.24 C 330.74 925.20 326.68 916.87 321.67 909.17 C 319.12 905.55 319.16 901.03 318.36 896.86 C 317.73 906.21 321.43 915.02 325.95 922.99 Z" />
<path fill="#020206" opacity="1.00" d=" M 240.04 820.43 C 241.57 820.44 243.15 820.10 244.66 820.51 C 258.55 826.74 271.39 835.21 282.61 845.51 C 282.64 845.89 282.70 846.65 282.73 847.03 L 282.78 847.89 C 277.52 845.73 274.02 840.78 269.22 837.79 C 260.38 830.60 250.06 825.70 240.04 820.43 Z" />
</g>
</svg>
